<svg width="366" height="248" viewBox="0 0 366 248" fill="none" xmlns="http://www.w3.org/2000/svg">
<line x1="352.631" y1="128.108" x2="312.196" y2="157.273" stroke="white"/>
<line x1="335.876" y1="125.395" x2="295.441" y2="154.561" stroke="white"/>
<line x1="319.12" y1="122.682" x2="278.685" y2="151.847" stroke="white"/>
<line x1="302.365" y1="119.969" x2="261.93" y2="149.134" stroke="white"/>
<line x1="336.527" y1="80.5295" x2="245.174" y2="146.421" stroke="white"/>
<line x1="343.733" y1="60.5334" x2="228.419" y2="143.708" stroke="white"/>
<line x1="201.955" y1="37.5769" x2="86.6405" y2="120.752" stroke="white"/>
<line x1="344.948" y1="44.8577" x2="211.663" y2="140.995" stroke="white"/>
<line x1="203.17" y1="21.9011" x2="69.885" y2="118.038" stroke="white"/>
<line x1="340.944" y1="200.286" x2="300.509" y2="229.451" stroke="white"/>
<line x1="222.366" y1="181.086" x2="181.931" y2="210.251" stroke="white"/>
<line x1="80.5884" y1="158.13" x2="40.1536" y2="187.295" stroke="white"/>
<line x1="203.033" y1="177.956" x2="162.598" y2="207.121" stroke="white"/>
<line x1="321.611" y1="197.156" x2="188.326" y2="293.293" stroke="white"/>
<line x1="179.833" y1="174.199" x2="46.5479" y2="270.336" stroke="white"/>
</svg>
