<svg width="19" height="19" viewBox="0 0 19 19" fill="none" xmlns="http://www.w3.org/2000/svg">
<path fill-rule="evenodd" clip-rule="evenodd" d="M9.50008 0C4.25402 0 0 4.28819 0 9.57817C0 13.8101 2.72206 17.4004 6.49673 18.6669C6.97152 18.7555 7.14582 18.4591 7.14582 18.2061C7.14582 17.9777 7.13702 17.2232 7.13293 16.4228C4.48999 17.0023 3.9323 15.2927 3.9323 15.2927C3.50015 14.1856 2.87749 13.8913 2.87749 13.8913C2.01555 13.2968 2.94246 13.309 2.94246 13.309C3.89644 13.3766 4.39875 14.296 4.39875 14.296C5.24606 15.7603 6.62117 15.337 7.16329 15.0923C7.24855 14.4732 7.49475 14.0507 7.76644 13.8115C5.65634 13.5693 3.43817 12.748 3.43817 9.07791C3.43817 8.0322 3.80928 7.17776 4.417 6.507C4.31836 6.26575 3.99319 5.29156 4.50903 3.97224C4.50903 3.97224 5.30679 3.71482 7.12223 4.95404C7.88002 4.74182 8.69273 4.63539 9.50008 4.63174C10.3074 4.63539 11.1208 4.74182 11.88 4.95404C13.6932 3.71482 14.4899 3.97224 14.4899 3.97224C15.007 5.29156 14.6816 6.26575 14.583 6.507C15.1921 7.17776 15.5607 8.0322 15.5607 9.07791C15.5607 12.7567 13.3383 13.5668 11.2229 13.8039C11.5636 14.1011 11.8672 14.684 11.8672 15.5776C11.8672 16.8592 11.8562 17.8906 11.8562 18.2061C11.8562 18.461 12.0272 18.7597 12.5088 18.6656C16.2814 17.3977 19 13.8086 19 9.57817C19 4.28819 14.7466 0 9.50008 0Z" fill="#161514"/>
<path fill-rule="evenodd" clip-rule="evenodd" d="M3.62602 13.6864C3.60514 13.7336 3.53102 13.7477 3.4635 13.7153C3.39472 13.6844 3.3561 13.6202 3.37839 13.5729C3.39881 13.5244 3.47308 13.5109 3.5417 13.5434C3.61063 13.5743 3.64989 13.6392 3.62602 13.6864Z" fill="#161514"/>
<path fill-rule="evenodd" clip-rule="evenodd" d="M4.01029 14.1148C3.96507 14.1567 3.87666 14.1372 3.81668 14.071C3.75466 14.0048 3.74304 13.9164 3.78889 13.8739C3.83552 13.8319 3.92126 13.8516 3.98344 13.9177C4.04547 13.9846 4.05756 14.0724 4.01029 14.1148Z" fill="#161514"/>
<path fill-rule="evenodd" clip-rule="evenodd" d="M4.38415 14.6611C4.32605 14.7014 4.23105 14.6636 4.17232 14.5792C4.11423 14.4949 4.11423 14.3938 4.17358 14.3533C4.23247 14.3127 4.32605 14.3492 4.38556 14.4329C4.44351 14.5186 4.44351 14.6198 4.38415 14.6611Z" fill="#161514"/>
<path fill-rule="evenodd" clip-rule="evenodd" d="M4.89638 15.1887C4.84441 15.2461 4.73371 15.2307 4.65268 15.1525C4.56977 15.076 4.54669 14.9675 4.59882 14.9101C4.65143 14.8527 4.76276 14.8688 4.84441 14.9464C4.92669 15.0227 4.95181 15.132 4.89638 15.1887Z" fill="#161514"/>
<path fill-rule="evenodd" clip-rule="evenodd" d="M5.60295 15.4952C5.58002 15.5695 5.4734 15.6033 5.366 15.5717C5.25875 15.5392 5.18856 15.4522 5.21023 15.3771C5.23253 15.3024 5.33962 15.2672 5.44781 15.301C5.5549 15.3333 5.62524 15.4197 5.60295 15.4952Z" fill="#161514"/>
<path fill-rule="evenodd" clip-rule="evenodd" d="M6.37891 15.552C6.38158 15.6302 6.29051 15.6951 6.17777 15.6965C6.06439 15.699 5.97269 15.6357 5.97144 15.5587C5.97144 15.4797 6.06047 15.4155 6.17384 15.4136C6.28658 15.4114 6.37891 15.4743 6.37891 15.552Z" fill="#161514"/>
<path fill-rule="evenodd" clip-rule="evenodd" d="M7.10107 15.429C7.11457 15.5053 7.03622 15.5837 6.92426 15.6046C6.81419 15.6247 6.71228 15.5776 6.6983 15.5019C6.68464 15.4237 6.76441 15.3453 6.87433 15.325C6.98644 15.3056 7.08678 15.3514 7.10107 15.429Z" fill="#161514"/>
</svg>
