<svg width="20" height="20" viewBox="0 0 20 20" fill="none" xmlns="http://www.w3.org/2000/svg">
<path fill-rule="evenodd" clip-rule="evenodd" d="M4.78919 12.1595L4.13123 14.6857L1.72643 14.738C1.00775 13.3671 0.600098 11.7985 0.600098 10.1317C0.600098 8.51993 0.98124 6.99997 1.65684 5.66162H1.65736L3.79831 6.0653L4.73617 8.25396C4.53988 8.84251 4.43289 9.4743 4.43289 10.1317C4.43297 10.8452 4.55864 11.5289 4.78919 12.1595Z" fill="#FBBB00"/>
<path fill-rule="evenodd" clip-rule="evenodd" d="M19.6318 8.45435C19.7425 9.02234 19.8002 9.60893 19.8002 10.2084C19.8002 10.8807 19.7277 11.5364 19.5895 12.1689C19.1203 14.3213 17.8945 16.2007 16.1963 17.5307L16.1958 17.5302L13.446 17.3935L13.0568 15.0265C14.1836 14.3827 15.0642 13.3751 15.5281 12.1689H10.3748V8.45435H15.6033H19.6318Z" fill="#518EF8"/>
<path fill-rule="evenodd" clip-rule="evenodd" d="M15.9597 17.4882L15.9602 17.4887C14.3324 18.8255 12.2647 19.6253 10.0138 19.6253C6.39663 19.6253 3.25175 17.5596 1.64746 14.5197L4.72555 11.9453C5.52768 14.1326 7.59279 15.6896 10.0138 15.6896C11.0544 15.6896 12.0294 15.4022 12.8659 14.9004L15.9597 17.4882Z" fill="#28B446"/>
<path fill-rule="evenodd" clip-rule="evenodd" d="M16.3093 2.96585L13.1977 5.49045C12.3222 4.9481 11.2872 4.63479 10.1785 4.63479C7.67483 4.63479 5.54749 6.23208 4.77699 8.45441L1.64799 5.91568H1.64746C3.24601 2.86126 6.4663 0.774414 10.1785 0.774414C12.509 0.774414 14.6458 1.59713 16.3093 2.96585Z" fill="#F14336"/>
</svg>
