<svg width="377" height="84" viewBox="0 0 377 84" fill="none" xmlns="http://www.w3.org/2000/svg">
<path d="M1.848 42.288C1.848 38.4053 2.688 34.952 4.368 31.928C6.048 28.8667 8.38133 26.496 11.368 24.816C14.392 23.0987 17.808 22.24 21.616 22.24C26.2827 22.24 30.2773 23.472 33.6 25.936C36.9227 28.4 39.144 31.76 40.264 36.016H29.736C28.952 34.3733 27.832 33.1227 26.376 32.264C24.9573 31.4053 23.3333 30.976 21.504 30.976C18.5547 30.976 16.1653 32.0027 14.336 34.056C12.5067 36.1093 11.592 38.8533 11.592 42.288C11.592 45.7227 12.5067 48.4667 14.336 50.52C16.1653 52.5733 18.5547 53.6 21.504 53.6C23.3333 53.6 24.9573 53.1707 26.376 52.312C27.832 51.4533 28.952 50.2027 29.736 48.56H40.264C39.144 52.816 36.9227 56.176 33.6 58.64C30.2773 61.0667 26.2827 62.28 21.616 62.28C17.808 62.28 14.392 61.44 11.368 59.76C8.38133 58.0427 6.048 55.672 4.368 52.648C2.688 49.624 1.848 46.1707 1.848 42.288ZM64.7203 62.392C61.0243 62.392 57.6269 61.5333 54.5283 59.816C51.4669 58.0987 49.0216 55.7093 47.1923 52.648C45.4002 49.5493 44.5042 46.0773 44.5042 42.232C44.5042 38.3867 45.4002 34.9333 47.1923 31.872C49.0216 28.8107 51.4669 26.4213 54.5283 24.704C57.6269 22.9867 61.0243 22.128 64.7203 22.128C68.4163 22.128 71.7949 22.9867 74.8563 24.704C77.9549 26.4213 80.3816 28.8107 82.1363 31.872C83.9283 34.9333 84.8243 38.3867 84.8243 42.232C84.8243 46.0773 83.9283 49.5493 82.1363 52.648C80.3443 55.7093 77.9176 58.0987 74.8563 59.816C71.7949 61.5333 68.4163 62.392 64.7203 62.392ZM64.7203 53.656C67.8563 53.656 70.3576 52.6107 72.2242 50.52C74.1283 48.4293 75.0803 45.6667 75.0803 42.232C75.0803 38.76 74.1283 35.9973 72.2242 33.944C70.3576 31.8533 67.8563 30.808 64.7203 30.808C61.5469 30.808 59.0083 31.8347 57.1043 33.888C55.2376 35.9413 54.3043 38.7227 54.3043 42.232C54.3043 45.704 55.2376 48.4853 57.1043 50.576C59.0083 52.6293 61.5469 53.656 64.7203 53.656ZM125.32 62H115.744L99.7277 37.752V62H90.1517V22.688H99.7277L115.744 47.048V22.688H125.32V62ZM160.541 22.688V30.36H150.125V62H140.549V30.36H130.133V22.688H160.541ZM174.923 30.36V38.312H187.747V45.704H174.923V54.328H189.427V62H165.347V22.688H189.427V30.36H174.923ZM230.812 62H221.236L205.22 37.752V62H195.644V22.688H205.22L221.236 47.048V22.688H230.812V62ZM266.033 22.688V30.36H255.617V62H246.041V30.36H235.625V22.688H266.033ZM289.431 62.392C285.735 62.392 282.338 61.5333 279.239 59.816C276.178 58.0987 273.733 55.7093 271.903 52.648C270.111 49.5493 269.215 46.0773 269.215 42.232C269.215 38.3867 270.111 34.9333 271.903 31.872C273.733 28.8107 276.178 26.4213 279.239 24.704C282.338 22.9867 285.735 22.128 289.431 22.128C293.127 22.128 296.506 22.9867 299.567 24.704C302.666 26.4213 305.093 28.8107 306.847 31.872C308.639 34.9333 309.535 38.3867 309.535 42.232C309.535 46.0773 308.639 49.5493 306.847 52.648C305.055 55.7093 302.629 58.0987 299.567 59.816C296.506 61.5333 293.127 62.392 289.431 62.392ZM289.431 53.656C292.567 53.656 295.069 52.6107 296.935 50.52C298.839 48.4293 299.791 45.6667 299.791 42.232C299.791 38.76 298.839 35.9973 296.935 33.944C295.069 31.8533 292.567 30.808 289.431 30.808C286.258 30.808 283.719 31.8347 281.815 33.888C279.949 35.9413 279.015 38.7227 279.015 42.232C279.015 45.704 279.949 48.4853 281.815 50.576C283.719 52.6293 286.258 53.656 289.431 53.656Z" fill="black"/>
<g clip-path="url(#clip0)">
<path d="M323.846 69.2779L316.607 69.2703L322.723 54.4728L322.971 54.2257L322.928 54.1829L322.971 54.2257L366.111 11.0856L376.914 21.8894L333.527 65.2766L323.846 69.2779ZM307.561 69.3818L314.96 69.3896V72.907L307.561 72.8901V69.3818ZM366.153 16.0897L366.111 16.0469L366.068 16.0897L360.5 21.6581L360.457 21.7009L360.5 21.7437L366.256 27.5005L366.299 27.5434L366.342 27.5005L371.91 21.9322L371.953 21.8894L371.91 21.8465L366.153 16.0897ZM358.019 24.2243L357.976 24.1815L357.933 24.2243L355.203 26.9545L355.16 26.9973L355.203 27.0401L360.96 32.7969L361.003 32.8398L361.045 32.7969L363.776 30.0668L363.818 30.0239L363.776 29.9811L358.019 24.2243ZM352.722 29.521L352.68 29.4782L352.637 29.521L327.775 54.383L327.732 54.4258L327.775 54.4686L333.531 60.2253L333.574 60.2681L333.617 60.2253L358.479 35.3633L358.522 35.3205L358.479 35.2777L352.722 29.521ZM325.501 57.156L325.437 57.0919L325.402 57.1757L321.638 66.2829L321.582 66.4177L321.717 66.362L330.824 62.5977L330.908 62.5631L330.844 62.4989L325.501 57.156Z" fill="black" stroke="black" stroke-width="0.121094"/>
<path d="M367.282 60.9343H347.805V64.5636H367.282V60.9343Z" fill="black"/>
</g>
<defs>
<clipPath id="clip0">
</clipPath>
</defs>
</svg>
