<svg width="630" height="445" viewBox="0 0 630 445" fill="none" xmlns="http://www.w3.org/2000/svg">
<g clip-path="url(#clip0)">
<path opacity="0.1" d="M564.203 442.88C594.673 442.88 619.375 437.171 619.375 430.127C619.375 423.084 594.673 417.374 564.203 417.374C533.732 417.374 509.031 423.084 509.031 430.127C509.031 437.171 533.732 442.88 564.203 442.88Z" fill="#333333"/>
<path opacity="0.1" d="M77.178 445.005C107.649 445.005 132.35 439.295 132.35 432.252C132.35 425.209 107.649 419.499 77.178 419.499C46.7073 419.499 22.006 425.209 22.006 432.252C22.006 439.295 46.7073 445.005 77.178 445.005Z" fill="#333333"/>
<path d="M377.369 120.09C377.369 120.09 369.615 117.146 344.958 127.733C320.302 138.32 317.204 136.969 310.834 135.35C304.463 133.731 300.913 133.349 294.047 124.52C294.047 124.52 289.219 100.035 284.551 96.2394C279.883 92.4438 260.026 98.4001 260.026 98.4001C260.026 98.4001 236.224 103.511 231.688 73.7447C231.688 73.7447 234.907 51.3067 230.525 44.4221C230.525 44.4221 239.343 47.9959 253.97 42.2304C268.596 36.4649 280.252 48.4188 280.252 48.4188C280.252 48.4188 283.934 57.3403 283.559 62.6572C283.184 67.974 285.504 69.9698 292.47 67.4016C292.47 67.4016 295.887 62.848 291.043 55.324C286.199 47.8 282.743 42.1892 284.099 36.3463C285.455 30.5035 289.335 22.4225 301.823 18.3485C314.311 14.2745 331.274 13.5113 339.42 10.3397C347.565 7.1682 349.533 5.10541 349.533 5.10541C349.533 5.10541 344.512 9.81888 356.333 29.7299C368.155 49.641 360.616 58.2892 360.616 58.2892C360.616 58.2892 354.333 72.2956 326.612 71.1817C326.612 71.1817 299.899 72.0944 314.487 82.6972C314.487 82.6972 323.818 80.918 337.761 76.7718C351.704 72.6256 361.773 89.7416 364.269 101.654C366.766 113.567 377.369 120.09 377.369 120.09Z" fill="#333333"/>
<path d="M341.453 20.2205L341.602 20.1844C342.671 23.9851 330.729 39.2652 320.528 51.3995L320.406 51.3119C334.807 34.1856 342.286 23.1445 341.453 20.2205Z" fill="#444053"/>
<path d="M320.621 51.0591L320.682 51.2138C312.531 60.9141 302.28 72.4863 294.074 81.0572C293.292 81.8772 292.515 82.7332 291.765 83.6099L291.534 83.4294C292.283 82.5528 293.066 81.6915 293.848 80.851C302.049 72.3059 312.476 60.7542 320.621 51.0591Z" fill="#444053"/>
<path d="M291.732 83.2025L291.892 83.4604C276.957 100.906 275.97 127.996 275.909 128.233L272.757 124.83C272.823 124.592 276.692 100.767 291.732 83.2025Z" fill="#444053"/>
<path d="M360.048 110.627C360.048 110.627 342.412 102.062 328.717 105.135C315.022 108.209 284.077 94.2746 284.077 94.2746C284.077 94.2746 270.955 89.2826 268.321 83.5996C268.321 83.5996 259.321 74.6987 258.808 70.0884C258.296 65.478 249.533 53.8955 243.818 53.4468" stroke="#444053" stroke-miterlimit="10"/>
<path d="M357.502 118.873C357.502 118.873 348.618 113.283 349.665 106.77" stroke="#444053" stroke-miterlimit="10"/>
<path d="M343.895 126.098C343.895 126.098 331.219 121.787 329.941 104.898" stroke="#444053" stroke-miterlimit="10"/>
<path d="M323.432 130.471C323.432 130.471 311.308 121.06 315.336 104.619" stroke="#444053" stroke-miterlimit="10"/>
<path d="M298.841 125.871C298.841 125.871 290.767 110.034 297.949 99.7306" stroke="#444053" stroke-miterlimit="10"/>
<path d="M360.257 100.19C360.257 100.19 351.081 102.912 353.049 107.409" stroke="#444053" stroke-miterlimit="10"/>
<path d="M349.169 84.6104C349.169 84.6104 336.896 88.2564 336.604 104.501" stroke="#444053" stroke-miterlimit="10"/>
<path d="M332.084 80.8613C332.084 80.8613 320.919 93.7537 321.74 105.486" stroke="#444053" stroke-miterlimit="10"/>
<path d="M312.509 85.9203C312.509 85.9203 301.415 95.8423 302.831 101.365" stroke="#444053" stroke-miterlimit="10"/>
<path d="M305.818 82.4135C305.818 82.4135 295.413 84.1617 293.958 80.9644" stroke="#444053" stroke-miterlimit="10"/>
<path d="M292.3 70.6608C292.3 70.6608 297.557 77.174 298.913 75.7146" stroke="#444053" stroke-miterlimit="10"/>
<path d="M344.407 66.5404C344.407 66.5404 318.185 68.3092 312.244 60.9244" stroke="#444053" stroke-miterlimit="10"/>
<path d="M286.783 37.8367C286.783 37.8367 299.089 62.554 308.023 65.6843" stroke="#444053" stroke-miterlimit="10"/>
<path d="M299.69 26.0634C299.69 26.0634 307.251 48.8004 316.615 55.8964" stroke="#444053" stroke-miterlimit="10"/>
<path d="M355.446 47.7793C355.446 47.7793 335.501 55.7881 323.526 47.6865" stroke="#444053" stroke-width="0.75" stroke-miterlimit="10"/>
<path d="M317.458 21.2158C317.458 21.2158 322.016 37.9295 328.155 41.9674" stroke="#444053" stroke-width="0.75" stroke-miterlimit="10"/>
<path d="M352.432 29.0595C352.432 29.0595 341.228 33.0304 337.039 29.9878" stroke="#444053" stroke-width="0.75" stroke-miterlimit="10"/>
<path d="M282.699 76.122C282.699 76.122 282.699 90.6905 278.461 91.727" stroke="#444053" stroke-miterlimit="10"/>
<path d="M248.051 94.9965C248.051 94.9965 264.882 96.3477 272.647 88.2203" stroke="#444053" stroke-miterlimit="10"/>
<path d="M278.356 58.9132C278.356 58.9132 274.284 73.6879 263.047 77.6691" stroke="#444053" stroke-miterlimit="10"/>
<path d="M237.954 79.4328C237.954 79.4328 249.869 83.3108 260.115 73.4404" stroke="#444053" stroke-miterlimit="10"/>
<path d="M265.108 46.2116C265.108 46.2116 264.005 58.7585 256.692 64.6323" stroke="#444053" stroke-miterlimit="10"/>
<path d="M238.395 60.3107C238.395 60.3107 248.282 60.3778 250.597 57.361" stroke="#444053" stroke-miterlimit="10"/>
<path opacity="0.1" d="M326.243 70.8877C286.893 77.0297 247.483 73.724 209.544 69.1447C171.606 64.5653 133.755 58.7173 94.3231 59.8621C68.9718 60.6047 40.7714 65.2666 23.2294 79.5721C6.35432 93.336 3.94044 112.154 4.10026 129.172C4.22151 141.971 5.5056 155.23 14.7698 165.523C21.2013 172.666 31.0332 177.854 38.4677 184.46C64.37 207.449 57.0237 243.063 40.6226 273.221C32.907 287.372 23.4774 301.26 18.3025 315.766C13.1275 330.273 12.615 345.899 22.3587 357.909C32.0252 369.817 50.515 376.675 69.7544 380.352C108.823 387.814 152.184 383.962 194.124 378.604C286.954 366.686 378.747 347.41 470.276 328.169C504.153 321.052 538.179 313.894 570.772 303.415C588.87 297.609 607.283 290.301 618.873 278.745C633.582 264.073 633.714 243.821 619.182 231.538C594.8 210.91 540.257 214.788 521.304 191.313C510.866 178.421 515.115 161.083 523.089 145.844C540.174 113.149 573.654 81.0469 568.832 48.1919C565.525 25.625 542.169 6.72987 511.141 1.50586C478.626 -3.96569 437.066 5.17246 418.675 27.6104C399.739 50.7755 360.985 65.4729 326.243 70.8877Z" fill="#333333"/>
<path d="M558.901 77.4113H48.9278C45.1262 77.4113 42.0444 80.295 42.0444 83.8523V348.585C42.0444 352.143 45.1262 355.026 48.9278 355.026H558.901C562.702 355.026 565.784 352.143 565.784 348.585V83.8523C565.784 80.295 562.702 77.4113 558.901 77.4113Z" fill="url(#paint0_linear)"/>
<path d="M558.129 81.3151H49.7601C45.9585 81.3151 42.8767 84.1988 42.8767 87.7561V347.662C42.8767 351.219 45.9585 354.103 49.7601 354.103H558.129C561.931 354.103 565.013 351.219 565.013 347.662V87.7561C565.013 84.1988 561.931 81.3151 558.129 81.3151Z" fill="white"/>
<path d="M558.129 81.3151H49.7601C45.9585 81.3151 42.8767 84.1988 42.8767 87.7561V347.662C42.8767 351.219 45.9585 354.103 49.7601 354.103H558.129C561.931 354.103 565.013 351.219 565.013 347.662V87.7561C565.013 84.1988 561.931 81.3151 558.129 81.3151Z" fill="white"/>
<path opacity="0.04" d="M558.129 81.3151H49.7601C45.9585 81.3151 42.8767 84.1988 42.8767 87.7561V347.662C42.8767 351.219 45.9585 354.103 49.7601 354.103H558.129C561.931 354.103 565.013 351.219 565.013 347.662V87.7561C565.013 84.1988 561.931 81.3151 558.129 81.3151Z" fill="#5A5773"/>
<path d="M562.362 78.1848H45.5055C44.8024 78.1848 44.1282 78.4462 43.631 78.9113C43.1339 79.3765 42.8546 80.0075 42.8546 80.6653V91.1546H564.991V80.6859C564.994 80.3602 564.928 80.0371 564.797 79.7351C564.667 79.4331 564.474 79.1582 564.23 78.9259C563.986 78.6936 563.695 78.5087 563.375 78.3815C563.054 78.2544 562.71 78.1875 562.362 78.1848Z" fill="#5A5773"/>
<path d="M53.3037 88.0191C55.2821 88.0191 56.8859 86.5184 56.8859 84.6671C56.8859 82.8158 55.2821 81.3151 53.3037 81.3151C51.3253 81.3151 49.7214 82.8158 49.7214 84.6671C49.7214 86.5184 51.3253 88.0191 53.3037 88.0191Z" fill="white"/>
<path d="M62.9482 88.0191C64.9266 88.0191 66.5304 86.5184 66.5304 84.6671C66.5304 82.8158 64.9266 81.3151 62.9482 81.3151C60.9698 81.3151 59.366 82.8158 59.366 84.6671C59.366 86.5184 60.9698 88.0191 62.9482 88.0191Z" fill="white"/>
<path d="M72.5926 88.0191C74.571 88.0191 76.1749 86.5184 76.1749 84.6671C76.1749 82.8158 74.571 81.3151 72.5926 81.3151C70.6142 81.3151 69.0104 82.8158 69.0104 84.6671C69.0104 86.5184 70.6142 88.0191 72.5926 88.0191Z" fill="white"/>
<path d="M507.592 151.543H83.4441C80.3425 151.543 77.8282 153.895 77.8282 156.798V348.843C77.8282 351.745 80.3425 354.098 83.4441 354.098H507.592C510.694 354.098 513.208 351.745 513.208 348.843V156.798C513.208 153.895 510.694 151.543 507.592 151.543Z" fill="white"/>
<path opacity="0.2" d="M182.474 104.919H61.4933C60.3184 104.919 59.366 105.81 59.366 106.909V115.227C59.366 116.327 60.3184 117.218 61.4933 117.218H182.474C183.649 117.218 184.601 116.327 184.601 115.227V106.909C184.601 105.81 183.649 104.919 182.474 104.919Z" fill="#5A5773"/>
<path opacity="0.2" d="M418.626 175.053H297.645C296.471 175.053 295.518 175.945 295.518 177.044V185.362C295.518 186.461 296.471 187.353 297.645 187.353H418.626C419.801 187.353 420.753 186.461 420.753 185.362V177.044C420.753 175.945 419.801 175.053 418.626 175.053Z" fill="#333333"/>
<path opacity="0.2" d="M488.942 209.492H297.645C296.471 209.492 295.518 210.383 295.518 211.482V219.8C295.518 220.9 296.471 221.791 297.645 221.791H488.942C490.117 221.791 491.07 220.9 491.07 219.8V211.482C491.07 210.383 490.117 209.492 488.942 209.492Z" fill="#333333"/>
<path opacity="0.2" d="M488.942 229.604H297.645C296.471 229.604 295.518 230.495 295.518 231.594V239.913C295.518 241.012 296.471 241.903 297.645 241.903H488.942C490.117 241.903 491.07 241.012 491.07 239.913V231.594C491.07 230.495 490.117 229.604 488.942 229.604Z" fill="#333333"/>
<path opacity="0.2" d="M488.942 249.716H297.645C296.471 249.716 295.518 250.607 295.518 251.707V260.025C295.518 261.124 296.471 262.015 297.645 262.015H488.942C490.117 262.015 491.07 261.124 491.07 260.025V251.707C491.07 250.607 490.117 249.716 488.942 249.716Z" fill="#333333"/>
<path opacity="0.2" d="M488.942 269.828H297.645C296.471 269.828 295.518 270.719 295.518 271.819V280.137C295.518 281.236 296.471 282.127 297.645 282.127H488.942C490.117 282.127 491.07 281.236 491.07 280.137V271.819C491.07 270.719 490.117 269.828 488.942 269.828Z" fill="#333333"/>
<path opacity="0.2" d="M488.942 292.003H103.56C102.385 292.003 101.432 292.894 101.432 293.994V302.312C101.432 303.411 102.385 304.302 103.56 304.302H488.942C490.117 304.302 491.07 303.411 491.07 302.312V293.994C491.07 292.894 490.117 292.003 488.942 292.003Z" fill="#333333"/>
<path opacity="0.2" d="M488.942 312.115H103.56C102.385 312.115 101.432 313.006 101.432 314.106V322.424C101.432 323.523 102.385 324.415 103.56 324.415H488.942C490.117 324.415 491.07 323.523 491.07 322.424V314.106C491.07 313.006 490.117 312.115 488.942 312.115Z" fill="#333333"/>
<path opacity="0.2" d="M488.942 332.227H103.56C102.385 332.227 101.432 333.119 101.432 334.218V342.536C101.432 343.636 102.385 344.527 103.56 344.527H488.942C490.117 344.527 491.07 343.636 491.07 342.536V334.218C491.07 333.119 490.117 332.227 488.942 332.227Z" fill="#333333"/>
<path d="M401.927 340.36C401.927 340.36 405.195 344.357 400.417 350.395C395.639 356.434 391.704 361.529 393.297 365.294C393.297 365.294 400.5 354.083 406.369 353.949C412.238 353.815 408.381 347.1 401.927 340.36Z" fill="#333333"/>
<path opacity="0.1" d="M401.927 340.36C402.212 340.746 402.436 341.168 402.594 341.613C408.32 347.905 411.368 353.778 405.868 353.923C400.742 354.062 394.592 362.638 393.12 364.799C393.167 364.974 393.225 365.147 393.297 365.315C393.297 365.315 400.5 354.103 406.369 353.969C412.238 353.835 408.381 347.1 401.927 340.36Z" fill="black"/>
<path d="M408 345.455C408 346.863 407.835 348.003 407.626 348.003C407.416 348.003 407.251 346.863 407.251 345.455C407.251 344.047 407.46 344.712 407.67 344.712C407.879 344.712 408 344.047 408 345.455Z" fill="#FFD037"/>
<path d="M410.089 347.136C408.767 347.807 407.615 348.214 407.516 348.044C407.416 347.874 408.408 347.188 409.72 346.497C411.032 345.806 410.519 346.311 410.618 346.497C410.717 346.682 411.406 346.461 410.089 347.136Z" fill="#FFD037"/>
<path d="M384.666 340.36C384.666 340.36 381.398 344.357 386.171 350.395C390.943 356.434 394.889 361.529 393.297 365.294C393.297 365.294 386.088 354.083 380.224 353.949C374.36 353.815 378.213 347.1 384.666 340.36Z" fill="#333333"/>
<path opacity="0.1" d="M384.666 340.36C384.378 340.745 384.152 341.167 383.994 341.613C378.273 347.905 375.226 353.778 380.726 353.923C385.851 354.062 391.996 362.638 393.468 364.799C393.423 364.974 393.366 365.146 393.297 365.315C393.297 365.315 386.088 354.103 380.224 353.969C374.36 353.835 378.213 347.1 384.666 340.36Z" fill="black"/>
<path d="M378.588 345.455C378.588 346.863 378.758 348.003 378.968 348.003C379.177 348.003 379.343 346.863 379.343 345.455C379.343 344.047 379.133 344.723 378.929 344.723C378.725 344.723 378.588 344.047 378.588 345.455Z" fill="#FFD037"/>
<path d="M376.504 347.136C377.827 347.807 378.979 348.214 379.078 348.044C379.177 347.874 378.185 347.188 376.874 346.497C375.562 345.806 376.074 346.311 375.975 346.497C375.876 346.682 375.182 346.461 376.504 347.136Z" fill="#FFD037"/>
<path opacity="0.1" d="M393.297 395.88C412.168 395.88 427.466 393.684 427.466 390.976C427.466 388.267 412.168 386.071 393.297 386.071C374.426 386.071 359.128 388.267 359.128 390.976C359.128 393.684 374.426 395.88 393.297 395.88Z" fill="#333333"/>
<path d="M410.894 359.905L410.728 361.153L410.502 362.917L410.403 363.654L410.177 365.418L410.078 366.155L409.847 367.914L407.234 387.974C406.997 389.764 403.873 391.161 400.07 391.161H386.501C382.726 391.161 379.607 389.764 379.376 387.974L376.752 367.929L376.526 366.171L376.427 365.433L376.196 363.669L376.102 362.932L375.87 361.168L375.705 359.92C375.578 358.889 377.27 358.053 379.403 358.053H407.19C409.323 358.038 411.015 358.889 410.894 359.905Z" fill="#65617D"/>
<path d="M410.717 361.153L410.491 362.917H376.102L375.87 361.153H410.717Z" fill="#9D9CB5"/>
<path d="M410.392 363.649L410.166 365.413H376.427L376.196 363.649H410.392Z" fill="#9D9CB5"/>
<path d="M410.067 366.15L409.836 367.914H376.752L376.526 366.15H410.067Z" fill="#9D9CB5"/>
<path opacity="0.2" d="M263.184 168.231H106.117C103.53 168.231 101.432 170.193 101.432 172.614V278.095C101.432 280.516 103.53 282.478 106.117 282.478H263.184C265.771 282.478 267.869 280.516 267.869 278.095V172.614C267.869 170.193 265.771 168.231 263.184 168.231Z" fill="#333333"/>
<path d="M620.03 295.293C620.24 294.778 618.686 291.828 618.686 291.683C618.686 291.539 617.082 289.904 617.082 288.991C617.082 288.079 614.96 286.104 614.96 286.104C614.96 286.104 612.111 285 611.802 282.592C611.494 280.183 608.391 280.142 608.385 280.142C608.385 280.142 608.385 279.925 608.385 279.59C608.448 278.639 608.319 277.686 608.005 276.78C607.639 276.115 607.007 275.612 606.247 275.382C606.247 275.382 605.933 273.505 605.316 272.927C604.971 272.59 604.724 272.177 604.597 271.726C604.47 271.275 604.467 270.801 604.588 270.349C604.902 269.441 604.175 267.131 602.676 266.791C601.177 266.45 599.463 265.924 599.463 265.924L599.049 265.991L598.846 265.924C598.481 265.989 598.113 266.033 597.743 266.053C597.427 266.062 597.117 265.967 596.867 265.785C596.349 265.269 592.155 264.238 591.356 264.238C590.557 264.238 588.352 263.274 588.352 263.274C588.352 263.274 586.798 262.17 586.148 261.685C585.498 261.2 584.368 259.442 584.197 259.174V259.138C584.007 258.728 583.851 258.306 583.728 257.874C584.486 257.132 585.133 256.298 585.652 255.394C585.707 255.301 585.757 255.208 585.806 255.11C585.92 255.11 586.033 255.095 586.142 255.064L586.28 255.012C586.541 254.885 586.773 254.712 586.962 254.501C587.151 254.29 587.294 254.047 587.382 253.785V253.785C587.421 253.68 587.454 253.573 587.482 253.465C587.482 253.429 587.482 253.393 587.482 253.357L587.531 253.14C587.529 253.099 587.529 253.058 587.531 253.016L587.564 252.8V252.676C587.564 252.583 587.564 252.496 587.603 252.403C587.636 252.056 587.69 251.712 587.763 251.371V251.371C588.071 250.067 588.914 248.963 589.504 247.761C589.587 247.591 589.669 247.416 589.741 247.246C589.813 247.076 589.884 246.859 589.945 246.663L589.995 246.483C590.033 246.338 590.066 246.194 590.099 246.049C590.132 245.905 590.099 245.92 590.138 245.853C590.171 245.657 590.199 245.456 590.221 245.25C590.319 244.099 590.13 242.943 589.669 241.872C589.284 240.97 588.705 240.155 588.314 239.252C587.719 237.886 587.559 236.334 586.837 235.029C586.248 233.97 585.276 233.142 584.095 232.692C582.914 232.243 581.6 232.201 580.389 232.574C579.287 232.966 578.284 233.724 577.143 234.065C575.611 234.524 573.979 234.178 572.392 233.977C570.805 233.776 569.085 233.75 567.785 234.719C566.319 235.833 565.922 237.927 564.544 239.149C563.993 239.665 563.249 239.99 562.637 240.464C562.207 240.787 561.876 241.21 561.678 241.692L561.645 241.79C561.631 241.832 561.62 241.875 561.612 241.919C561.6 241.966 561.591 242.014 561.585 242.063C561.582 242.096 561.582 242.128 561.585 242.161C561.574 242.247 561.574 242.333 561.585 242.419V242.419C561.592 242.5 561.605 242.581 561.623 242.661V242.728C561.623 242.795 561.662 242.862 561.689 242.929C561.717 242.996 561.689 242.955 561.689 242.965C561.689 242.976 561.75 243.115 561.783 243.187L561.833 243.296C561.833 243.326 561.833 243.357 561.877 243.383C562.074 243.741 562.234 244.116 562.356 244.502C562.42 244.747 562.403 245.004 562.307 245.24C562.176 245.508 561.988 245.748 561.756 245.946C560.724 246.948 559.928 248.141 559.419 249.448C559.356 249.599 559.301 249.749 559.254 249.896H559.325C559.473 249.936 559.624 249.965 559.777 249.984C559.863 249.989 559.95 249.989 560.036 249.984C560.391 250.004 560.746 249.979 561.094 249.912L561.359 249.85C561.719 249.762 562.069 249.643 562.406 249.494C562.406 249.592 562.406 249.69 562.406 249.788C562.406 249.886 562.406 249.896 562.406 249.953C562.409 252.081 563.047 254.166 564.248 255.974C565.448 257.781 567.163 259.24 569.201 260.185C569.201 260.288 569.229 260.391 569.245 260.494L569.278 260.757L569.141 260.633C569.141 260.633 568.209 260.2 567.327 261.448C566.681 262.267 565.803 262.901 564.792 263.279C564.792 263.279 555.368 264.671 555.004 265.826L550.596 266.069C550.596 266.069 549.041 266.259 548.887 269.292C548.733 272.324 547.906 272.608 547.906 272.608C547.906 272.608 546.093 275.594 546.253 277.13C546.272 277.599 546.152 278.064 545.904 278.472C545.657 278.88 545.293 279.216 544.853 279.441L544.649 282.184C544.649 282.184 542.941 281.942 542.445 283.819C542.247 284.813 541.806 285.75 541.155 286.557C541.155 286.557 538.306 288.775 538.151 290.647L536.388 291.678C536.388 291.678 532.299 290.812 531.367 289.275C531.367 289.275 531.257 289.172 531.081 289.022V288.986C530.469 288.471 529.174 287.315 529.372 287.578C529.494 287.82 529.523 288.093 529.455 288.352L529.152 288.037L528.336 287.192C528.336 287.192 521.723 281.395 517.865 280.936C517.815 280.843 517.562 279.905 516.9 280.498C516.353 280.968 515.915 281.54 515.615 282.176C515.314 282.812 515.157 283.5 515.153 284.195C515.15 284.891 515.299 285.58 515.593 286.219C515.887 286.858 516.319 287.433 516.862 287.908L523.056 293.318L523.216 293.426L524.544 295.025C524.318 295.541 524.131 296.015 523.993 296.459V296.505L523.894 296.784C523.882 296.814 523.873 296.845 523.867 296.876C523.833 296.969 523.806 297.057 523.778 297.145L523.729 297.299C523.729 297.33 523.729 297.361 523.729 297.392C523.58 297.877 523.486 298.248 523.442 298.454L523.095 298.351L523.431 298.491V298.537C523.431 298.604 523.431 298.64 523.431 298.64L523.751 298.769C525.564 299.506 534.613 303.225 535.076 303.787C535.539 304.349 539.011 306.241 542.119 304.7C545.228 303.158 545.895 300.806 545.895 300.806C545.895 300.806 548.898 296.907 549.003 296.33C549.108 295.752 551.433 295.082 551.433 295.082C551.433 295.082 551.643 301.523 550.452 303.885C549.262 306.247 547.035 316.679 547.035 316.679C547.182 316.66 547.33 316.66 547.476 316.679L547.344 317.283C547.526 317.251 547.713 317.251 547.895 317.283C547.73 318.469 546.793 323.987 546.793 323.987C546.793 323.987 546.484 326.488 545.966 327.354C545.448 328.22 545.415 332.743 545.415 332.743L544.583 336.013C544.583 336.013 544.693 336.24 544.897 336.575C545.455 337.688 546.268 338.672 547.278 339.457C547.211 339.971 547.071 340.475 546.859 340.953C546.537 341.684 546.396 342.474 546.446 343.263C546.446 343.263 545.569 346.966 545.669 348.023C545.768 349.08 545.117 351.68 545.117 351.68L544.186 360.049C544.186 360.049 543.569 367.31 543.877 369.285C544.026 370.834 543.955 372.395 543.668 373.927C543.668 373.927 544.291 379.651 544.137 380.275C543.982 380.899 543.205 383.596 543.668 385.086C544.131 386.577 543.877 390.666 543.877 390.666C543.877 390.666 544.186 396.055 544.55 397.788C544.744 399.1 544.709 400.432 544.445 401.733C544.445 401.733 544.081 405.436 543.927 405.436C543.773 405.436 542.428 407.983 545.167 410.484C547.906 412.986 546.209 412.599 546.209 412.599C546.209 412.599 544.004 411.567 544.291 413.661C544.533 415.626 544.875 415.115 544.908 415.059L544.39 416.642L544.754 416.688L544.456 417.023C544.144 417.399 543.793 417.744 543.409 418.055C543.006 418.423 542.766 418.921 542.737 419.447C542.737 419.447 538.906 423.346 535.335 425.316C533.456 426.347 531.836 427.229 531.13 427.961C530.491 428.611 530.579 429.137 531.918 429.55C534.712 430.416 539.634 430.849 543.15 429.741C545.257 429.088 547.153 427.948 548.661 426.425C548.661 426.425 550.866 425.362 553.07 425.749C555.274 426.136 559.595 423.49 559.595 423.49L559.513 422.81L559.287 420.84C559.141 420.675 559.033 420.483 558.971 420.277C558.908 420.071 558.892 419.855 558.923 419.643C558.95 419.061 558.889 418.477 558.741 417.91C558.702 417.72 558.664 417.529 558.625 417.354L559.022 417.281C559.022 417.281 558.51 414.832 559.441 414.347C560.372 413.862 560.108 407.566 560.108 407.566C560.108 407.566 558.923 406.122 558.3 405.884C557.677 405.647 558.245 402.656 558.355 402.275C558.465 401.893 559.287 394.431 559.287 394.431C559.287 394.431 558.972 392.079 559.386 391.068C559.799 390.058 558.868 386.159 558.868 386.159C558.782 385.98 558.761 385.781 558.807 385.59C558.854 385.399 558.966 385.227 559.127 385.102C559.678 384.524 559.491 379.378 559.491 379.378C559.491 379.378 559.441 376.799 559.441 376.103C559.441 375.407 560.058 372.978 560.631 372.163C561.204 371.348 560.835 368.795 560.835 368.795L560.868 368.605C560.868 368.532 560.868 368.44 560.912 368.331L560.956 368.074C561.209 366.664 561.548 365.27 561.971 363.896C562.643 361.88 563.42 358.322 563.42 358.322L568.231 346.574L568.286 346.435C568.286 346.435 570.491 350.282 570.491 353.845C570.491 353.845 571.042 358.126 570.91 359.281C570.777 360.436 571.268 365.866 571.268 365.866C571.268 365.866 571.94 373.659 571.94 373.994C571.94 374.329 572.772 380.342 573.29 381.26C573.808 382.178 572.772 384.963 572.458 385.251C572.144 385.54 572.563 392.61 572.563 392.61C572.563 392.61 571.786 398.19 571.632 399.345C571.477 400.501 570.854 404.925 571.372 406.658C571.891 408.391 571.681 408.628 571.681 408.628C571.681 408.628 573.549 410.412 572.458 410.557C572.062 410.638 571.689 410.797 571.364 411.024C571.039 411.25 570.77 411.539 570.574 411.871C570.378 412.203 570.259 412.57 570.227 412.948C570.195 413.326 570.249 413.706 570.386 414.063C571.035 415.824 571.797 417.546 572.668 419.22L573.527 419.05V419.623L573.588 422.49C573.588 422.49 573.952 425.228 573.742 425.857C573.594 426.311 573.384 428.467 573.285 429.596C573.246 430.009 573.224 430.282 573.224 430.282C573.224 430.282 573.224 432.83 578.972 432.061C584.72 431.293 585.751 429.173 585.751 429.173L585.795 428.91C585.878 428.426 586.065 427.394 586.22 426.817C586.423 426.048 584.566 422.583 584.566 422.583C584.566 422.583 584.258 420.226 583.74 419.7C583.522 419.388 583.379 419.037 583.321 418.669C583.277 418.473 583.232 418.271 583.199 418.075C583.329 418.09 583.458 418.11 583.585 418.137C583.585 418.137 583.271 416.456 584.467 415.925C585.663 415.394 585.343 414.29 585.189 413.811C585.035 413.331 585.652 410.634 585.652 410.634C585.564 410.365 585.556 410.079 585.629 409.807C585.702 409.534 585.853 409.285 586.065 409.087C586.793 408.411 587.36 403.698 587.36 403.698L587.465 385.514C587.465 385.514 587.829 382.291 587.415 380.992C587.002 379.692 586.589 377.191 587.156 376.515C587.724 375.84 587.206 372.72 587.206 372.72C587.206 372.72 587.206 366.129 587.983 364.469C588.76 362.808 588.501 352.489 588.501 352.489L588.705 345.708C588.705 345.708 590.397 344.212 590 336.425C591.802 336.317 593.858 336.255 594.145 336.492C594.696 336.925 598.388 339.138 600.565 337.74C601.464 337.163 602.327 336.538 603.15 335.868L602.235 321.429C602.786 322.233 603.15 322.764 603.15 322.764C603.15 320.748 609.262 314.204 609.262 314.204C609.262 314.204 614.955 307.324 616.195 306.51C617.435 305.695 619.87 301.353 619.87 301.353C620.231 300.528 620.647 299.725 621.116 298.95C621.689 298.13 619.826 295.819 620.03 295.293ZM606.677 300.342C605.123 300.486 601.86 303.807 601.811 304.529C601.698 305.006 601.461 305.448 601.122 305.819C601.122 305.53 601.072 305.236 601.044 304.937C600.681 300.682 600.284 295.505 600.493 295.004C600.802 294.138 600.697 290.239 600.697 290.239L600.758 290.162C601.799 293.184 605.04 296.742 605.04 296.742C605.04 296.742 605.591 298.289 606.286 298.326C606.98 298.362 606.677 300.342 606.677 300.342V300.342Z" fill="url(#paint1_linear)"/>
<path d="M523.679 299.243C523.679 299.243 525.57 289.961 531.637 289.961L536.079 298.506L533.12 300.414C533.12 300.414 526.688 300.579 523.679 299.243Z" fill="#65617D"/>
<path opacity="0.1" d="M536.079 298.48L533.12 300.388C533.12 300.388 528.595 300.522 525.36 299.78C524.783 299.66 524.22 299.487 523.679 299.264L523.712 299.115V299.084C523.989 297.92 524.372 296.781 524.859 295.68C525.046 295.262 525.255 294.834 525.487 294.406C526.374 292.808 527.625 291.235 529.345 290.461C529.975 290.163 530.663 289.988 531.367 289.945H531.637L531.736 290.136L533.236 293.024L536.079 298.48Z" fill="black"/>
<path d="M586.484 336.956C586.484 336.956 592.86 336.384 593.423 336.817C593.985 337.25 597.606 339.442 599.744 338.055C601.882 336.668 600.46 331.866 600.46 331.66C600.46 331.454 600.256 324.642 600.256 324.642L596.432 319.82L591.637 311.373L581.838 310.465L582.092 323.873L582.042 330.747L586.484 336.956Z" fill="#65617D"/>
<path opacity="0.1" d="M586.484 336.956C586.484 336.956 592.86 336.384 593.423 336.817C593.985 337.25 597.606 339.442 599.744 338.055C601.882 336.668 600.46 331.866 600.46 331.66C600.46 331.454 600.256 324.642 600.256 324.642L596.432 319.82L591.637 311.373L581.838 310.465L582.092 323.873L582.042 330.747L586.484 336.956Z" fill="black"/>
<path d="M530.364 289.698C530.364 289.698 529.852 295.52 525.955 295.618C525.955 295.618 524.853 294.999 523.376 293.963C519.97 291.575 514.558 286.991 516.057 282.726C518.201 276.615 528.606 287.883 528.606 287.883L529.411 288.723L530.364 289.698Z" fill="#FBBEBE"/>
<path opacity="0.1" d="M530.364 289.698C530.364 289.698 529.852 295.52 525.955 295.618C525.955 295.618 524.853 294.999 523.376 293.963L523.045 293.566C523.706 293.881 524.432 294.057 525.173 294.081C525.755 294.103 526.331 293.958 526.823 293.666C527.315 293.374 527.701 292.949 527.928 292.447C528.346 291.697 528.714 290.923 529.031 290.131C529.213 289.669 529.344 289.19 529.422 288.703L530.364 289.698Z" fill="black"/>
<path d="M528.678 300.249L527.807 299.218L524.87 295.68L523.376 293.87C524.034 294.186 524.759 294.362 525.498 294.386C526.081 294.409 526.657 294.265 527.15 293.973C527.643 293.681 528.028 293.254 528.253 292.751C528.663 292.002 529.022 291.231 529.328 290.441C529.813 289.151 529.802 288.491 529.631 288.264C529.46 288.037 530.733 289.131 531.318 289.667L531.599 289.915L531.703 290.11L533.241 292.895C533.244 292.935 533.244 292.974 533.241 293.014C533.351 293.891 533.847 299.455 528.678 300.249Z" fill="#E7EFFD"/>
<path d="M559.243 423.109C559.243 423.109 554.955 425.739 552.811 425.352C551.326 425.177 549.82 425.41 548.474 426.022C547 427.532 545.139 428.666 543.067 429.318C539.595 430.416 534.751 429.983 531.995 429.127C530.695 428.719 530.59 428.193 531.218 427.549C531.847 426.904 533.511 425.955 535.363 424.924C538.884 422.964 542.66 419.102 542.66 419.102C542.683 418.577 542.92 418.081 543.321 417.715C543.7 417.404 544.045 417.058 544.351 416.683C544.903 416.08 545.415 415.445 545.415 415.445L558.041 415.889C558.041 415.889 558.256 416.74 558.427 417.611C558.571 418.173 558.63 418.751 558.603 419.329C558.572 419.54 558.588 419.754 558.65 419.959C558.711 420.164 558.817 420.355 558.962 420.52L559.187 422.469L559.243 423.109Z" fill="#65617D"/>
<path d="M585.597 426.419C585.448 426.992 585.261 428.013 585.178 428.482C585.178 428.642 585.139 428.745 585.139 428.745C585.139 428.745 584.12 430.844 578.454 431.607C572.789 432.371 572.794 429.844 572.794 429.844L572.85 429.158C572.949 428.044 573.153 425.904 573.301 425.45C573.505 424.831 573.153 422.108 573.153 422.108L573.092 419.262L573.048 417.287L582.417 416.379C582.477 417.035 582.578 417.688 582.72 418.333C582.775 418.702 582.916 419.054 583.133 419.365C583.64 419.88 583.949 422.227 583.949 422.227C583.949 422.227 585.817 425.656 585.597 426.419Z" fill="#65617D"/>
<path opacity="0.1" d="M558.041 415.889C558.041 415.889 558.256 416.74 558.427 417.611C557.066 417.843 551.114 418.808 549.609 418.127C547.923 417.364 544.302 416.936 544.302 416.936L544.362 416.74C544.914 416.137 545.426 415.502 545.426 415.502L558.041 415.889Z" fill="black"/>
<path opacity="0.1" d="M582.753 418.349C580.378 417.972 575.159 418.865 573.109 419.277L573.064 417.302L582.433 416.394C582.499 417.051 582.606 417.704 582.753 418.349V418.349Z" fill="black"/>
<path d="M588.06 345.981L587.862 352.685C587.862 352.685 588.115 362.947 587.349 364.546C586.583 366.145 586.583 372.71 586.583 372.71C586.583 372.71 587.096 375.804 586.534 376.479C585.972 377.155 586.379 379.63 586.787 380.92C587.195 382.209 586.837 385.406 586.837 385.406L586.738 403.455C586.738 403.455 586.187 408.133 585.459 408.803C585.25 409.004 585.102 409.253 585.03 409.525C584.959 409.797 584.966 410.082 585.051 410.35C585.051 410.35 584.44 413.022 584.594 413.501C584.748 413.981 585.051 415.074 583.883 415.6C582.715 416.126 583.012 417.797 583.012 417.797C580.207 417.173 572.249 418.828 572.249 418.828C571.39 417.169 570.639 415.462 570 413.718C569.863 413.364 569.808 412.987 569.839 412.612C569.87 412.236 569.986 411.872 570.179 411.542C570.373 411.212 570.639 410.924 570.961 410.698C571.283 410.472 571.652 410.313 572.045 410.232C573.114 410.093 571.279 408.324 571.279 408.324C571.279 408.324 571.483 408.086 570.97 406.364C570.458 404.642 571.075 400.253 571.229 399.108C571.384 397.963 572.144 392.404 572.144 392.404C572.144 392.404 571.736 385.385 572.045 385.102C572.354 384.818 573.368 382.044 572.861 381.141C572.354 380.239 571.532 374.267 571.532 373.922C571.532 373.576 570.871 365.851 570.871 365.851C570.871 365.851 570.259 360.457 570.414 359.312C570.568 358.167 570 353.918 570 353.918C570 350.385 567.796 346.564 567.796 346.564L567.741 346.703L563.001 358.44C563.001 358.44 562.235 361.973 561.574 363.979C561.156 365.335 560.823 366.712 560.576 368.104L560.532 368.362L560.488 368.63L560.455 368.821C560.455 368.821 560.808 371.348 560.246 372.163C559.62 373.395 559.224 374.719 559.077 376.077C559.077 376.748 559.127 379.326 559.127 379.326C559.127 379.326 559.331 384.431 558.769 384.999C558.614 385.123 558.506 385.29 558.461 385.475C558.415 385.661 558.434 385.855 558.515 386.03C558.515 386.03 559.43 389.898 559.022 390.898C558.614 391.899 558.923 394.24 558.923 394.24C558.923 394.24 558.107 401.64 558.003 402.022C557.898 402.403 557.341 405.364 557.953 405.601C558.565 405.838 559.739 407.272 559.739 407.272C559.739 407.272 559.992 413.527 559.077 414.001C558.162 414.476 558.664 416.915 558.664 416.915C558.664 416.915 551.268 418.251 549.587 417.488C547.906 416.724 544.28 416.296 544.28 416.296L544.787 414.749C544.754 414.806 544.418 415.316 544.181 413.362C543.922 411.299 546.065 412.331 546.065 412.331C546.065 412.331 547.752 412.712 545.046 410.232C542.34 407.751 543.668 405.219 543.822 405.219C543.977 405.219 544.329 401.542 544.329 401.542C544.59 400.251 544.626 398.93 544.434 397.628C544.076 395.911 543.773 390.563 543.773 390.563C543.773 390.563 544.026 386.505 543.563 385.024C543.1 383.544 543.872 380.899 544.026 380.249C544.181 379.599 543.563 373.947 543.563 373.947C543.851 372.416 543.922 370.855 543.773 369.306C543.464 367.346 544.076 360.137 544.076 360.137L544.996 351.834C544.996 351.834 545.658 349.256 545.547 348.224C545.437 347.193 546.313 343.501 546.313 343.501C546.264 342.717 546.403 341.932 546.721 341.206C547.234 340.252 547.438 337.08 547.438 337.08L552.337 326.581L554.734 317.298L587.129 317.009C587.129 317.009 587.245 317.814 587.443 319.273C587.641 320.733 587.917 322.883 588.226 325.559C588.507 327.983 588.815 330.835 589.118 334.007C590.105 344.166 588.06 345.981 588.06 345.981Z" fill="#3F3D56"/>
<path d="M585.046 262.392L577.501 269.947C577.501 269.947 567.812 266.337 568.832 265.073C569.223 264.594 569.163 263.078 568.937 261.407C568.578 258.761 567.834 255.734 567.834 255.734C567.834 255.734 584.77 253.156 583.337 255.827C582.881 256.835 582.844 257.966 583.232 258.998C583.641 260.212 584.253 261.358 585.046 262.392V262.392Z" fill="#FBBEBE"/>
<path opacity="0.1" d="M583.315 255.801C582.797 256.781 582.549 256.874 582.874 257.926C580.67 260.148 577.843 262.567 574.337 262.567C572.463 262.569 570.614 262.163 568.937 261.381C568.578 258.735 567.834 255.708 567.834 255.708C567.834 255.708 584.748 253.13 583.315 255.801Z" fill="black"/>
<path d="M586.484 250.933C586.484 253.947 585.205 256.837 582.927 258.968C580.65 261.099 577.561 262.296 574.34 262.296C571.12 262.296 568.031 261.099 565.753 258.968C563.476 256.837 562.197 253.947 562.197 250.933C562.197 250.876 562.197 250.825 562.197 250.768C562.208 249.276 562.534 247.801 563.154 246.427C563.775 245.052 564.679 243.806 565.815 242.759C566.95 241.712 568.295 240.884 569.773 240.323C571.25 239.762 572.831 239.479 574.426 239.49C576.02 239.5 577.597 239.805 579.065 240.386C580.534 240.967 581.866 241.813 582.985 242.875C584.104 243.938 584.989 245.197 585.588 246.579C586.188 247.962 586.49 249.441 586.479 250.933H586.484Z" fill="#FBBEBE"/>
<path opacity="0.1" d="M588.242 325.889C586.633 325.889 581.276 325.941 575.291 326.034H575.219L573.241 326.065H573.18C566.082 326.168 559.088 324.874 556.278 325.116C550.309 325.632 558.421 319.959 558.421 319.959C562.869 320.967 567.444 321.399 572.017 321.243L573.737 321.161C579.16 320.872 584.61 320.397 587.46 319.613C587.658 321.078 587.934 323.223 588.242 325.889Z" fill="black"/>
<path d="M588.242 325.601C586.633 325.601 581.276 325.657 575.291 325.745H575.219L573.241 325.776H573.18C566.082 325.884 559.088 324.585 556.278 324.832C550.309 325.348 558.421 319.675 558.421 319.675C562.869 320.686 567.444 321.118 572.017 320.959L573.737 320.877C579.16 320.593 584.61 320.114 587.46 319.33C587.658 320.789 587.934 322.935 588.242 325.601Z" fill="#5F5D7E"/>
<path opacity="0.1" d="M571.075 265.543L561.706 269.668L554.459 322.084C554.459 322.084 558.747 320.268 561.193 321.413C563.64 322.558 571.191 321.511 571.191 321.511C571.191 321.511 576.702 321.222 577.517 321.8C578.333 322.378 587.928 319.412 587.928 319.412C587.928 319.412 589.664 315.802 588.336 315.209C587.008 314.616 588.744 309.021 588.744 309.021L587.928 271.21L586.275 266.342L581.866 263.856L577.38 267.198L575.236 267.487L571.075 265.543Z" fill="black"/>
<path d="M571.075 264.97L561.706 269.096L554.442 321.516C554.442 321.516 558.73 319.701 561.177 320.846C563.624 321.991 571.174 320.944 571.174 320.944C571.174 320.944 576.685 320.655 577.501 321.228C578.317 321.8 587.911 318.845 587.911 318.845C587.911 318.845 589.647 315.235 588.319 314.642C586.991 314.049 588.727 308.454 588.727 308.454L587.911 270.643L586.258 265.775L581.849 263.289L577.363 266.631L575.219 266.92L571.075 264.97Z" fill="#E7EFFD"/>
<path opacity="0.1" d="M570.921 267.404C570.921 267.404 573.627 270.411 573.577 271.014C573.527 271.618 573.423 273.118 573.423 273.118L571.384 276.981C571.384 276.981 570.281 281.803 570.281 282.808C570.281 283.814 568.496 292.498 568.496 292.498L566.308 305.88L563.602 323.414L566.357 327.854L569.626 325.276L573.963 294.056L574.878 287.898C574.878 287.898 575.848 276.821 575.848 275.676C575.744 274.284 575.56 272.898 575.297 271.525C575.297 271.525 575.963 268.657 578.719 267.992C581.475 267.327 578.51 267.848 578.51 267.848L576.933 266.657L575.556 267.172C575.556 267.172 571.736 266.069 570.921 267.404Z" fill="black"/>
<path d="M570.617 267.116C570.617 267.116 573.318 270.122 573.268 270.725C573.219 271.329 573.114 272.824 573.114 272.824L571.075 276.692C571.075 276.692 569.973 281.514 569.973 282.514C569.973 283.515 568.187 292.204 568.187 292.204L566.049 305.571L563.343 323.105L566.098 327.545L569.361 324.966L573.698 293.746L574.619 287.589C574.619 287.589 575.589 276.512 575.589 275.367C575.484 273.973 575.3 272.585 575.037 271.21C575.037 271.21 575.699 268.348 578.454 267.678C581.21 267.007 578.25 267.538 578.25 267.538L576.669 266.342L575.291 266.858C575.291 266.858 571.433 265.78 570.617 267.116Z" fill="#333333"/>
<path opacity="0.1" d="M568.832 262.103C568.832 262.103 568.424 262.392 568.319 264.3C568.215 266.208 566.787 270.488 566.787 270.488C566.787 270.488 572.094 267.054 574.745 267.435L568.832 262.103Z" fill="black"/>
<path d="M568.832 261.531C568.832 261.531 568.424 261.819 568.319 263.727C568.215 265.635 566.787 269.916 566.787 269.916C566.787 269.916 572.094 266.481 574.745 266.863L568.832 261.531Z" fill="#E7EFFD"/>
<path opacity="0.1" d="M583.321 260.576L574.955 267.451C574.955 267.451 581.992 271.365 582.913 272.319C583.833 273.273 584.748 262.964 584.748 262.964L583.321 260.576Z" fill="black"/>
<path d="M583.624 260.004L575.258 266.878C575.258 266.878 582.301 270.792 583.216 271.746C584.131 272.701 585.051 262.392 585.051 262.392L583.624 260.004Z" fill="#E7EFFD"/>
<path opacity="0.1" d="M569.135 262.103C569.135 262.103 568.22 261.675 567.349 262.918C566.714 263.727 565.849 264.354 564.853 264.728C564.853 264.728 555.567 266.115 555.208 267.26L550.871 267.497C550.871 267.497 549.339 267.688 549.218 270.7C549.097 273.711 548.248 273.99 548.248 273.99C548.248 273.99 546.462 276.95 546.594 278.476C546.614 278.941 546.496 279.401 546.253 279.806C546.009 280.211 545.651 280.545 545.217 280.771L551.593 296.283C551.593 296.283 551.797 302.683 550.623 305.019C549.449 307.355 547.256 317.721 547.256 317.721C547.256 317.721 548.176 317.53 548.121 318.102C548.066 318.675 547.019 324.93 547.019 324.93C547.019 324.93 546.71 327.411 546.203 328.272C545.696 329.133 545.652 333.615 545.652 333.615L544.836 336.864C544.836 336.864 546.771 340.922 549.73 340.35C552.69 339.777 558.041 328.937 558.041 328.937L561.458 317.241L564.114 305.69L564.88 297.861L566.104 280.529L567.89 269.075C567.89 269.075 569.851 262.918 569.135 262.103Z" fill="black"/>
<path d="M568.832 261.531C568.832 261.531 567.912 261.103 567.046 262.345C566.408 263.154 565.542 263.781 564.544 264.155C564.544 264.155 555.258 265.543 554.9 266.687L550.568 266.925C550.568 266.925 549.036 267.116 548.882 270.122C548.727 273.129 547.912 273.417 547.912 273.417C547.912 273.417 546.126 276.377 546.258 277.904C546.279 278.368 546.162 278.829 545.918 279.235C545.675 279.64 545.315 279.974 544.881 280.199L551.279 295.732C551.279 295.732 551.483 302.131 550.309 304.467C549.135 306.804 546.942 317.169 546.942 317.169C546.942 317.169 547.862 316.978 547.812 317.551C547.763 318.123 546.71 324.373 546.71 324.373C546.71 324.373 546.407 326.859 545.895 327.715C545.382 328.571 545.344 333.063 545.344 333.063L544.528 336.312C544.528 336.312 546.468 340.37 549.427 339.793C552.387 339.215 557.744 328.385 557.744 328.385L561.161 316.689L563.811 305.138L564.544 297.279L565.768 279.946L567.553 268.492C567.553 268.492 569.543 262.345 568.832 261.531Z" fill="#65617D"/>
<path opacity="0.1" d="M536.079 298.48L533.12 300.388C533.12 300.388 528.595 300.522 525.36 299.78L523.707 299.094L523.376 298.96L523.718 299.063C525.032 299.501 526.458 299.548 527.802 299.197C531.99 297.877 531.527 291.41 531.362 289.945C531.362 289.796 531.334 289.703 531.329 289.667V289.703C531.388 289.791 531.452 289.875 531.522 289.956L531.709 290.141L533.241 292.895C533.244 292.935 533.244 292.974 533.241 293.014L536.079 298.48Z" fill="black"/>
<path d="M546.33 279.817L544.903 280.199L544.699 282.917C544.699 282.917 543.045 282.679 542.555 284.541C542.359 285.528 541.923 286.459 541.282 287.264C541.282 287.264 538.477 289.461 538.322 291.322L536.586 292.323C536.586 292.323 532.558 291.462 531.626 289.935C531.626 289.935 533.467 302.25 523.668 299.218C523.668 299.218 534.635 303.704 535.148 304.328C535.66 304.952 539.006 306.762 542.086 305.236C545.167 303.709 545.812 301.368 545.812 301.368C545.812 301.368 548.771 297.5 548.871 296.928C548.97 296.356 551.268 295.685 551.268 295.685L555.677 285.758L546.33 279.817Z" fill="#65617D"/>
<path opacity="0.1" d="M582.147 266.306L583.624 260.004C583.624 260.004 584.291 262.067 584.952 262.536L587.156 264.083C587.156 264.083 589.361 265.037 590.116 265.037C590.871 265.037 595.015 266.069 595.522 266.584C596.029 267.1 598.074 266.729 598.074 266.729C598.074 266.729 599.755 267.244 601.237 267.59C602.72 267.935 603.442 270.215 603.122 271.123C602.999 271.574 603 272.047 603.126 272.498C603.251 272.949 603.496 273.363 603.839 273.701C604.45 274.273 604.759 276.135 604.759 276.135C605.508 276.364 606.13 276.861 606.489 277.517C607.002 278.549 606.848 280.859 606.848 280.859L599.248 290.884C599.248 290.884 599.347 294.752 599.044 295.613C598.741 296.474 600.113 311.084 600.113 311.084L601.695 336.193C600.883 336.859 600.031 337.481 599.143 338.055C598.686 338.246 598.228 329.175 598.228 328.844C598.228 328.514 586.44 312.342 586.44 312.342C586.44 312.342 584.858 309.954 584.858 309.428C584.858 308.902 583.381 304.081 583.381 304.081L581.138 294.798L582.147 266.306Z" fill="black"/>
<path d="M607.47 280.317C607.47 280.647 607.47 280.864 607.47 280.864L599.876 290.879C599.876 290.879 599.981 294.747 599.672 295.608C599.496 296.123 599.882 301.244 600.223 305.463C600.482 308.505 600.719 311.074 600.719 311.074L601.392 321.723L602.301 336.162C601.49 336.828 600.638 337.45 599.749 338.024C599.292 338.215 598.834 329.144 598.834 328.808C598.834 328.473 587.046 312.306 587.046 312.306C587.046 312.306 585.464 309.918 585.464 309.392C585.464 308.866 583.987 304.045 583.987 304.045L581.744 294.762L582.764 266.311L583.629 260.009C583.629 260.009 584.908 262.072 585.569 262.536L587.774 264.114C587.774 264.114 589.978 265.068 590.733 265.068C591.488 265.068 595.632 266.1 596.139 266.615C596.646 267.131 598.691 266.76 598.691 266.76C598.691 266.76 600.378 267.275 601.855 267.621C603.331 267.966 604.059 270.246 603.739 271.153C603.617 271.605 603.618 272.078 603.744 272.529C603.869 272.98 604.114 273.393 604.456 273.732C605.067 274.304 605.376 276.166 605.376 276.166C606.125 276.395 606.747 276.892 607.107 277.548C607.406 278.443 607.529 279.381 607.47 280.317V280.317Z" fill="#65617D"/>
<path opacity="0.1" d="M545.106 407.514C545.36 407.514 556.074 407.896 555.87 409.52C555.666 411.144 545.106 407.514 545.106 407.514Z" fill="black"/>
<path opacity="0.1" d="M547.504 410.216C547.504 410.216 554.696 411.315 552.811 412.315C550.926 413.316 547.504 410.216 547.504 410.216Z" fill="black"/>
<path opacity="0.1" d="M574.238 406.467C574.238 406.467 586.176 407.421 584.39 408.659C582.604 409.897 578.372 410.093 578.168 410.139C577.964 410.185 574.238 406.467 574.238 406.467Z" fill="black"/>
<path opacity="0.1" d="M572.811 411.382C572.811 411.382 579.424 412.413 579.645 413.625C579.865 414.837 572.811 411.382 572.811 411.382Z" fill="black"/>
<path opacity="0.1" d="M576.481 382.642C576.481 382.642 582.544 383.978 582.913 384.885L576.481 382.642Z" fill="black"/>
<path opacity="0.1" d="M553.081 386.747C553.081 386.747 549.918 387.608 552.982 389.325C556.046 391.043 553.081 386.747 553.081 386.747Z" fill="black"/>
<path opacity="0.1" d="M567.096 340.871C567.454 340.871 573.015 339.153 574.955 339.916C576.341 340.401 577.807 340.659 579.287 340.68L567.096 340.871Z" fill="black"/>
<path opacity="0.1" d="M567.812 346.311L567.757 346.786L563.001 358.44C563.001 358.44 562.235 361.973 561.574 363.979C561.156 365.335 560.823 366.712 560.576 368.104L564.787 343.676L567.812 346.311Z" fill="black"/>
<path d="M575.219 325.745L573.241 325.776H573.18L572.017 320.965L573.737 320.877L575.219 325.745Z" fill="#3F3D56"/>
<path d="M599.286 319.918L598.019 320.898L593.775 324.162C593.775 324.162 582.301 329.891 579.138 324.451C576.349 319.655 589.361 316.23 592.497 315.483L593.164 315.333L599.286 319.918Z" fill="#FBBEBE"/>
<path opacity="0.1" d="M550.259 272.989C550.259 272.989 552.502 273.943 553.015 275.279C553.527 276.615 550.259 272.989 550.259 272.989Z" fill="black"/>
<path opacity="0.1" d="M543.321 287.31C543.321 287.31 540.058 291.034 541.381 292.467C542.704 293.901 543.321 287.31 543.321 287.31Z" fill="black"/>
<path opacity="0.1" d="M601.684 275.104C601.684 275.104 598.625 275.392 598.52 277.873L601.684 275.104Z" fill="black"/>
<path opacity="0.1" d="M573.318 314.235C573.626 313.946 580.664 304.21 582.301 305.071L573.318 314.235Z" fill="black"/>
<path opacity="0.1" d="M586.484 250.933C586.485 252.804 585.991 254.647 585.046 256.296H584.958C584.186 256.141 583.784 255.306 583.2 254.78C582.838 254.458 582.378 254.25 581.884 254.185C581.389 254.12 580.886 254.202 580.444 254.419C579.997 254.669 579.633 255.031 579.394 255.463C579.154 255.896 579.048 256.383 579.088 256.869C578.702 255.322 578.824 253.713 578.443 252.181C578.063 250.649 576.922 249.087 575.357 249.087C574.685 249.087 573.897 249.319 573.412 248.844C573.12 248.561 573.059 248.112 572.861 247.767C571.758 246.07 568.342 246.926 566.953 247.798C565.564 248.669 563.949 250.051 562.224 250.794C562.248 247.781 563.549 244.9 565.842 242.785C568.136 240.67 571.233 239.494 574.453 239.515C577.673 239.537 580.752 240.755 583.013 242.901C585.273 245.047 586.53 247.946 586.506 250.959L586.484 250.933Z" fill="black"/>
<path d="M572.839 247.452C573.059 247.798 573.12 248.246 573.39 248.535C573.875 249.004 574.663 248.762 575.335 248.772C576.9 248.798 578.047 250.35 578.421 251.866C578.796 253.383 578.68 255.022 579.072 256.549C579.027 256.064 579.13 255.577 579.369 255.144C579.608 254.712 579.973 254.351 580.422 254.105C580.864 253.888 581.367 253.806 581.861 253.87C582.354 253.934 582.815 254.14 583.177 254.46C583.762 254.976 584.164 255.827 584.936 255.976C585.707 256.126 586.446 255.435 586.721 254.677C586.919 253.894 587.067 253.1 587.162 252.3C587.509 250.814 588.551 249.592 589.124 248.174C589.808 246.451 589.79 244.553 589.074 242.842C588.689 241.944 588.121 241.14 587.735 240.263C587.146 238.907 586.991 237.37 586.275 236.076C585.7 235.027 584.744 234.205 583.579 233.757C582.415 233.309 581.117 233.264 579.92 233.631C578.818 234.023 577.848 234.776 576.724 235.117C575.214 235.57 573.605 235.23 572.045 235.024C570.485 234.817 568.738 234.802 567.504 235.761C566.06 236.87 565.663 238.948 564.307 240.16C563.756 240.676 563.029 240.995 562.428 241.465C562.103 241.689 561.839 241.981 561.656 242.318C561.474 242.654 561.377 243.026 561.375 243.404C561.469 244.394 562.478 245.291 562.119 246.209C561.987 246.473 561.8 246.71 561.568 246.905C560.432 248.021 559.587 249.368 559.099 250.84C561.855 251.634 564.787 248.819 566.92 247.488C568.319 246.617 571.72 245.761 572.839 247.452Z" fill="#7C5C5C"/>
<path opacity="0.1" d="M599.286 319.918L598.019 320.898C596.917 319.149 592.298 315.663 592.298 315.663L592.497 315.483L593.164 315.333L599.286 319.918Z" fill="black"/>
<path d="M600.51 318.149C600.51 318.149 600.058 319.211 599.584 320.129C599.11 321.047 598.598 321.883 598.576 321.207C598.52 319.866 592.607 315.38 592.607 315.38L593.406 314.647L594.337 313.802L600.51 318.149Z" fill="#E7EFFD"/>
<path opacity="0.1" d="M600.714 311.084L601.386 321.733C599.799 319.428 595.451 313.518 592.656 313.709L599.441 306.406C599.722 306.113 599.982 305.801 600.218 305.473C600.477 308.516 600.714 311.084 600.714 311.084Z" fill="black"/>
<path opacity="0.1" d="M600.51 318.149C600.51 318.149 600.058 319.211 599.584 320.129C597.804 317.85 595.362 315.153 593.406 314.647L594.337 313.802L600.51 318.149Z" fill="black"/>
<path d="M605.613 279.528L607.448 280.864C607.448 280.864 610.513 280.916 610.816 283.298C611.119 285.681 613.93 286.784 613.93 286.784C613.93 286.784 616.018 288.744 616.018 289.651C616.018 290.559 617.6 292.178 617.6 292.323C617.6 292.467 619.132 295.376 618.928 295.902C618.724 296.428 620.581 298.717 619.997 299.579C619.539 300.351 619.13 301.148 618.774 301.966C618.774 301.966 616.376 306.262 615.153 307.072C613.93 307.881 608.319 314.714 608.319 314.714C608.319 314.714 602.296 321.202 602.296 323.208C602.296 323.208 596.432 314.044 592.96 314.281L599.744 306.979C599.744 306.979 600.918 305.782 600.973 305.071C601.028 304.359 604.235 301.059 605.768 300.914C605.768 300.914 606.021 298.96 605.36 298.908C604.698 298.857 604.136 297.361 604.136 297.361C604.136 297.361 599.645 292.395 599.595 289.244C599.546 286.093 605.613 279.528 605.613 279.528Z" fill="#65617D"/>
<path opacity="0.1" d="M608.319 284.061C608.319 284.061 604.031 287.021 604.952 287.981C605.872 288.94 608.319 284.061 608.319 284.061Z" fill="black"/>
<path opacity="0.1" d="M608.523 296.283C608.523 296.283 616.481 293.896 617.297 296.283H608.523Z" fill="black"/>
<path opacity="0.1" d="M559.243 423.109C559.243 423.109 554.955 425.739 552.811 425.352C551.326 425.177 549.82 425.41 548.474 426.022C547 427.532 545.139 428.666 543.067 429.318C539.595 430.416 534.751 429.983 531.995 429.127C530.695 428.719 530.59 428.193 531.218 427.549C534.211 428.106 540.907 429.215 542.709 428.41C544.696 427.423 546.606 426.307 548.424 425.068C548.424 425.068 552.833 424.496 553.423 424.496C553.858 424.496 557.248 423.186 559.16 422.433L559.243 423.109Z" fill="black"/>
<path opacity="0.1" d="M585.194 428.498C585.194 428.658 585.156 428.761 585.156 428.761C585.156 428.761 584.136 430.86 578.471 431.623C572.805 432.386 572.811 429.859 572.811 429.859L572.866 429.173C574.657 429.813 578.57 430.519 585.194 428.498Z" fill="black"/>
<path opacity="0.1" d="M552.376 283.489C552.376 283.489 552.376 294.375 551.384 295.448C550.392 296.521 552.376 283.489 552.376 283.489Z" fill="black"/>
<path opacity="0.1" d="M598.366 287.001L599.848 290.889C599.848 290.889 600.433 287.073 598.366 287.001Z" fill="black"/>
<g opacity="0.1">
<path opacity="0.1" d="M562.296 245.271C562.67 244.378 561.689 243.497 561.563 242.537C561.431 242.807 561.374 243.103 561.397 243.399C561.463 244.126 562.037 244.801 562.185 245.461C562.228 245.401 562.265 245.337 562.296 245.271V245.271Z" fill="black"/>
<path opacity="0.1" d="M579.226 255.554C578.862 254.048 578.972 252.459 578.598 250.948C578.223 249.437 577.076 247.854 575.511 247.854C574.839 247.854 574.051 248.081 573.566 247.612C573.268 247.328 573.213 246.88 573.015 246.529C571.913 244.837 568.496 245.699 567.101 246.565C565.018 247.859 562.141 250.577 559.474 249.958C559.347 250.247 559.226 250.541 559.127 250.845C561.882 251.639 564.814 248.824 566.947 247.493C568.341 246.627 571.742 245.771 572.861 247.462C573.081 247.808 573.142 248.256 573.412 248.545C573.897 249.015 574.685 248.772 575.357 248.782C576.922 248.808 578.069 250.361 578.443 251.877C578.818 253.393 578.702 255.033 579.094 256.559C579.066 256.219 579.111 255.877 579.226 255.554V255.554Z" fill="black"/>
<path opacity="0.1" d="M586.897 253.764C586.622 254.522 585.894 255.218 585.106 255.064C584.318 254.909 583.938 254.074 583.354 253.548C582.991 253.227 582.531 253.021 582.037 252.956C581.544 252.891 581.041 252.972 580.598 253.187C580.173 253.425 579.823 253.765 579.584 254.172C579.346 254.579 579.228 255.038 579.242 255.502C579.447 254.919 579.875 254.426 580.444 254.12C580.886 253.904 581.388 253.822 581.882 253.886C582.376 253.949 582.837 254.156 583.199 254.476C583.784 254.992 584.186 255.842 584.957 255.992C585.729 256.142 586.467 255.45 586.743 254.692C586.893 254.247 586.987 253.786 587.024 253.321C586.993 253.471 586.951 253.619 586.897 253.764Z" fill="black"/>
<path opacity="0.1" d="M589.3 247.256C588.749 248.669 587.685 249.891 587.338 251.382C587.272 251.681 587.228 251.99 587.189 252.3C587.542 250.814 588.573 249.597 589.146 248.174C589.402 247.538 589.559 246.871 589.614 246.194C589.539 246.555 589.434 246.91 589.3 247.256V247.256Z" fill="black"/>
</g>
<path d="M515.572 281.823C515.642 281.823 515.698 281.77 515.698 281.705C515.698 281.639 515.642 281.586 515.572 281.586C515.502 281.586 515.446 281.639 515.446 281.705C515.446 281.77 515.502 281.823 515.572 281.823Z" fill="#E6E8EC"/>
<path d="M564.169 284.366H471.604C469.593 284.366 467.962 285.892 467.962 287.774V388.335C467.962 390.218 469.593 391.744 471.604 391.744H564.169C566.181 391.744 567.812 390.218 567.812 388.335V287.774C567.812 285.892 566.181 284.366 564.169 284.366Z" fill="white"/>
<path opacity="0.1" d="M564.169 284.366H471.604C469.593 284.366 467.962 285.892 467.962 287.774V388.335C467.962 390.218 469.593 391.744 471.604 391.744H564.169C566.181 391.744 567.812 390.218 567.812 388.335V287.774C567.812 285.892 566.181 284.366 564.169 284.366Z" fill="#5A5773"/>
<path d="M559.077 289.842H476.697C474.685 289.842 473.054 291.368 473.054 293.251V382.858C473.054 384.741 474.685 386.267 476.697 386.267H559.077C561.089 386.267 562.72 384.741 562.72 382.858V293.251C562.72 291.368 561.089 289.842 559.077 289.842Z" fill="white"/>
<path d="M544.291 309.181H489.422C487.587 309.181 486.099 310.573 486.099 312.291V325.936C486.099 327.653 487.587 329.046 489.422 329.046H544.291C546.126 329.046 547.614 327.653 547.614 325.936V312.291C547.614 310.573 546.126 309.181 544.291 309.181Z" fill="#333333"/>
<path d="M545.36 336.312H488.358V340.365H545.36V336.312Z" fill="#333333"/>
<path d="M557.104 344.867H478.67V348.921H557.104V344.867Z" fill="#333333"/>
<path d="M557.104 353.871H478.67V357.925H557.104V353.871Z" fill="#333333"/>
<path d="M557.104 362.875H478.67V366.929H557.104V362.875Z" fill="#333333"/>
<path d="M231.468 248.87H3.64286C1.63096 248.87 0 250.396 0 252.279V352.84C0 354.722 1.63096 356.249 3.64286 356.249H231.468C233.48 356.249 235.111 354.722 235.111 352.84V252.279C235.111 250.396 233.48 248.87 231.468 248.87Z" fill="white"/>
<path opacity="0.1" d="M231.468 248.87H3.64286C1.63096 248.87 0 250.396 0 252.279V352.84C0 354.722 1.63096 356.249 3.64286 356.249H231.468C233.48 356.249 235.111 354.722 235.111 352.84V252.279C235.111 250.396 233.48 248.87 231.468 248.87Z" fill="#5A5773"/>
<path d="M219.47 254.347H15.635C13.6232 254.347 11.9922 255.873 11.9922 257.756V347.363C11.9922 349.246 13.6232 350.772 15.635 350.772H219.47C221.482 350.772 223.113 349.246 223.113 347.363V257.756C223.113 255.873 221.482 254.347 219.47 254.347Z" fill="white"/>
<path d="M184.232 273.691H46.04C44.2047 273.691 42.7168 275.083 42.7168 276.8V290.446C42.7168 292.163 44.2047 293.555 46.04 293.555H184.232C186.067 293.555 187.555 292.163 187.555 290.446V276.8C187.555 275.083 186.067 273.691 184.232 273.691Z" fill="#333333"/>
<path d="M182.242 300.816H48.0295V304.87H182.242V300.816Z" fill="#333333"/>
<path d="M209.892 309.372H25.2135V313.425H209.892V309.372Z" fill="#333333"/>
<path d="M209.892 318.376H25.2135V322.429H209.892V318.376Z" fill="#333333"/>
<path d="M209.892 327.38H25.2135V331.433H209.892V327.38Z" fill="#333333"/>
<path d="M57.4646 433.515C58.1204 431.277 58.5668 429.307 58.5668 429.307C58.5791 427.811 59.0002 426.343 59.7903 425.043V424.424L59.9776 419.88C59.6863 419.044 59.3175 418.233 58.8754 417.457C58.0598 415.997 59.151 410.794 59.151 410.794C59.151 410.794 62.6946 403.538 62.0994 398.83C61.5042 394.121 69.6056 378.289 69.6056 378.289C69.6272 376.729 69.4571 375.172 69.0986 373.648C69.0335 373.331 69.0149 373.006 69.0435 372.684C69.0407 372.644 69.0407 372.605 69.0435 372.565V372.601C69.2804 369.507 72.1242 363.834 72.1242 363.834L72.2289 352.799C72.2289 352.799 70.8291 346.239 73.8822 337.611C74.9569 334.6 75.6623 332.186 76.1253 330.319C76.1804 330.108 76.23 329.907 76.2741 329.711C70.7189 328.71 66.4753 327.896 66.4753 327.896C66.4753 327.896 70.2394 315.323 72.5375 313.183C74.8357 311.043 76.8527 304.122 76.8527 304.122C76.8527 304.122 78.3628 295.2 76.6323 292.519C74.9018 289.837 74.8246 285.299 74.8246 285.299C74.8246 285.299 70.7354 282.293 70.2614 281.008C69.7875 279.724 69.0324 276.831 69.0931 275.336C69.1537 273.84 69.7379 272.499 69.5946 271.7C69.4513 270.901 70.9779 267.941 70.3331 266.486C70.1727 266.04 70.098 265.57 70.1126 265.099C70.1126 265.099 70.1126 265.099 70.1126 265.058C70.1584 263.809 70.3338 262.567 70.6362 261.35C71.889 260.434 73.3354 259.776 74.8798 259.421L74.9845 259.081L75.26 258.199C75.3955 258.12 75.5353 258.048 75.6789 257.983L75.7064 257.658L75.7946 256.374L75.2655 253.444C74.1633 248.36 81.3939 247.87 81.3939 247.87C81.8594 247.113 82.6071 246.544 83.4937 246.271C84.9596 245.848 83.4275 253.857 82.7276 254.347C82.1765 254.713 80.5232 257.183 79.724 258.395L79.5918 258.596C79.7078 258.7 79.8147 258.812 79.9114 258.931L79.5642 260.669L79.5091 260.932C79.964 261.503 80.3262 262.134 80.5838 262.804C80.5838 262.804 79.2115 264.104 79.4154 265.62C79.4749 266.799 79.2877 267.978 78.8643 269.091C78.9415 269.013 79.9059 268.111 80.8208 268.369C81.7356 268.627 84.2818 269.447 84.2818 269.447C84.2818 269.447 86.1941 269.833 86.0012 270.225C85.8083 270.617 87.2302 272.412 87.2302 272.412L92.5926 268.013C92.6532 267.874 92.7083 267.74 92.7634 267.6C93.0104 266.952 93.1949 266.284 93.3145 265.605C92.7492 265.46 92.1965 265.276 91.6612 265.053C91.1237 264.859 90.6436 264.548 90.2613 264.145C89.7653 263.547 89.7102 262.753 89.5173 262.026C89.1646 260.602 88.338 259.313 87.7593 257.946C86.7886 255.654 86.5325 253.15 87.0208 250.727C87.1385 249.984 87.4405 249.278 87.9026 248.664C88.7954 247.607 90.344 247.22 91.4958 246.395C92.6477 245.57 93.4192 244.265 94.7419 243.662C95.9433 243.115 97.3707 243.239 98.6879 243.486C101.246 243.975 103.684 244.903 105.88 246.225C106.618 246.673 107.429 247.189 108.305 247.07C109.032 246.889 109.673 246.484 110.123 245.92C110.121 245.896 110.121 245.872 110.123 245.848L110.184 245.791C110.685 246.949 110.907 248.196 110.834 249.443C110.834 249.633 110.834 249.829 110.79 250.02C110.79 250.087 110.79 250.154 110.79 250.221C110.785 250.278 110.785 250.335 110.79 250.391V250.391C110.788 250.477 110.799 250.562 110.823 250.644C110.92 250.898 111.076 251.129 111.281 251.32C111.431 251.492 111.563 251.677 111.678 251.872C111.678 251.805 111.639 251.737 111.617 251.67C111.929 252.133 112.093 252.67 112.091 253.218C112.104 253.616 111.947 254.004 111.656 254.295C111.389 254.526 111.097 254.73 110.785 254.904C111.064 256.777 110.723 258.684 109.809 260.371C108.895 262.057 107.45 263.441 105.67 264.336C105.604 264.47 105.538 264.609 105.478 264.748C104.657 266.387 104.261 268.184 104.32 269.993C104.32 270.122 104.32 270.251 104.364 270.38C104.408 270.509 104.491 270.519 104.546 270.591C104.546 270.591 113.088 270.978 115.172 269.343C117.255 267.709 120.077 273.691 120.077 273.691C120.077 273.691 123.119 274.356 123.753 273.825C124.386 273.294 127.963 273.897 127.963 273.897C129.479 272.727 131.414 272.142 133.375 272.262C134.607 271.454 135.956 270.815 137.382 270.364V270.364L137.481 270.333C138.104 270.144 138.766 270.089 139.415 270.174C139.415 270.174 143.752 267.079 145.048 265.372C146.343 263.666 152.421 257.41 152.421 257.379L152.46 257.07L152.565 256.131C152.735 256.164 152.909 256.185 153.083 256.193L153.215 255.868C153.588 254.962 154.039 254.086 154.565 253.248C154.565 253.248 154.615 252.057 154.257 251.748C153.898 251.438 154.604 247.106 154.604 247.106C154.604 247.106 158.732 238.958 161.868 245.265C161.868 245.265 168.117 249.499 162.54 253.965C162.54 253.965 160.335 254.863 160.021 255.621C159.801 256.136 159.013 257.487 158.484 258.4L158.247 258.808L158.307 258.859L158.197 259.633L158.153 259.937C159.14 260.509 159.806 261.066 159.625 261.484C159.296 262.16 159.061 262.872 158.925 263.604C158.925 263.604 151.132 272.01 150.019 275.717C150.019 275.717 129.594 286.103 123.014 286.66L123.923 292.251C124.031 293.759 124.057 295.272 124.001 296.784C123.863 297.97 124.519 303.39 124.519 303.39C124.519 303.39 125.329 311.362 126.249 312.507C127.169 313.652 126.8 318.407 126.8 318.407C126.938 320.692 127.285 322.963 127.836 325.193C128.674 328.241 127.836 331.944 127.836 331.944C127.836 331.944 130.873 339.2 123.102 334.074C123.102 334.074 119.2 333.707 114.703 333.403C114.703 333.537 114.703 333.682 114.703 333.821C114.703 334.368 114.676 334.955 114.659 335.574C114.549 339.664 114.345 345.295 113.97 349.55C113.309 357.074 110.245 371.895 110.245 371.895L109.936 379.383C110.067 380.093 110.115 380.814 110.079 381.533C110.027 384.175 109.173 386.749 107.616 388.954L106.795 393.931C106.795 393.931 105.224 397.169 105.114 399.134C105.111 399.295 105.126 399.456 105.158 399.614C105.198 399.868 105.211 400.125 105.197 400.382C105.197 402.651 103.499 408.025 103.499 408.025C103.499 408.025 103.185 413.496 102.298 413.78C101.537 414.027 103.168 416.972 103.653 417.818C103.671 417.767 103.684 417.716 103.692 417.663L103.797 417.828C103.959 418.278 104.032 418.751 104.012 419.225C104.044 419.601 103.963 419.978 103.777 420.312C103.59 420.646 103.307 420.923 102.959 421.113C101.256 422.005 100.33 422.763 101.73 423.134C102.247 423.229 102.758 423.348 103.262 423.49L103.345 423.31C103.542 423.39 103.705 423.53 103.805 423.709C103.905 423.887 103.937 424.092 103.896 424.29C103.858 424.938 103.651 425.568 103.295 426.126C102.616 427.533 101.766 428.862 100.76 430.086L100.088 429.993C100.179 430.235 100.301 430.465 100.451 430.679C100.693 431.034 101.021 431.329 101.41 431.54C101.768 431.756 102.17 431.9 102.59 431.963C103.065 431.996 103.527 432.122 103.946 432.332C104.366 432.543 104.734 432.833 105.026 433.185C105.852 434.274 106.343 435.733 104.563 436.935L98.2194 438.729C98.2194 438.729 87.3956 439.652 88.0569 437.414C88.7182 435.176 89.1591 433.206 89.1591 433.206C89.1707 431.822 89.5254 430.459 90.1952 429.225C90.3176 429.024 90.4538 428.831 90.603 428.647L90.2228 428.596C90.2228 428.596 89.5945 423.568 88.5584 422.593C88.3269 422.361 88.2773 422.191 88.338 422.077C88.2443 421.804 88.5198 421.654 88.8891 421.562C88.8891 421.623 88.9387 421.691 88.9607 421.758C89.3065 421.703 89.6573 421.681 90.0078 421.691C90.0078 421.691 90.4652 419.086 89.3685 418.081C89.2799 417.97 89.2174 417.843 89.1851 417.708C89.1528 417.572 89.1514 417.432 89.1812 417.297C89.1834 416.938 89.2372 416.58 89.341 416.234C89.3518 416.256 89.3647 416.277 89.3796 416.296C90.0519 413.945 92.1351 410.242 92.1351 410.242C92.1351 410.242 92.317 407.865 91.6557 406.885C90.9943 405.905 92.2784 393.961 92.2784 393.961C92.2784 393.961 92.2509 388.165 93.1492 385.499C94.0475 382.833 92.4272 379.594 92.4272 379.594C92.4272 379.594 92.4272 379.532 92.4548 379.424C92.4566 379.409 92.4566 379.393 92.4548 379.378C92.4548 379.378 92.5099 379.022 92.5981 378.47V378.527C92.8405 376.98 93.287 374.241 93.5846 372.962C94.0089 371.152 93.9318 362.411 93.9318 362.411L92.5044 358.647L89.4347 364.969L86.128 373.426C86.128 373.426 84.5794 375.18 84.4747 377.036C84.4747 377.129 84.4747 377.217 84.4747 377.31C84.4883 377.5 84.4883 377.691 84.4747 377.882C84.4792 378.965 84.1164 380.021 83.4386 380.899C83.4386 380.899 82.4851 384.916 81.2341 385.901C79.9831 386.886 79.8839 388.872 79.8839 388.872C79.8839 388.872 78.1534 394.689 77.4094 395.694C76.7866 396.54 76.6543 398.928 76.6323 399.66C76.6323 399.794 76.6323 399.871 76.6323 399.871C76.6323 399.871 76.3402 401.965 76.2741 403.729C76.2741 403.945 76.2741 404.157 76.2741 404.353C76.2714 404.339 76.2714 404.325 76.2741 404.312C76.2531 404.791 76.2938 405.27 76.3953 405.74C76.3953 405.74 76.3953 405.797 76.3953 405.828V405.529C76.6571 406.736 76.7589 407.969 76.6984 409.2C76.6488 411.31 76.2024 413.795 74.775 415.213C72.3061 417.668 70.8346 417.276 70.8346 417.276C70.8346 417.276 71.8431 420.489 73.2154 421.175C73.2682 421.201 73.3181 421.232 73.3642 421.268C73.3642 421.206 73.3642 421.144 73.4028 421.087C73.5486 421.252 73.6562 421.444 73.7188 421.65C73.7814 421.856 73.7977 422.071 73.7665 422.284C73.8106 423.681 72.7745 425.893 71.8376 426.925C71.4965 427.22 71.0813 427.429 70.6307 427.533C70.6993 427.582 70.7711 427.627 70.8456 427.667C70.9985 427.752 71.1567 427.828 71.3196 427.894C71.5419 427.996 71.78 428.064 72.025 428.095C72.5006 428.125 72.9638 428.25 73.3839 428.461C73.804 428.671 74.1711 428.964 74.4609 429.318C75.2876 430.401 75.7781 431.86 73.998 433.062L67.6547 434.856C67.6547 434.856 56.7977 435.754 57.4646 433.515Z" fill="url(#paint2_linear)"/>
<path d="M98.4399 438.739L104.585 436.94C106.31 435.733 105.836 434.274 105.037 433.185C104.761 432.837 104.408 432.548 104.002 432.339C103.596 432.13 103.146 432.005 102.683 431.974C102.273 431.91 101.882 431.764 101.537 431.545C101.162 431.333 100.846 431.039 100.617 430.689C100.203 430.016 99.9948 429.249 100.016 428.472C100.016 428.472 93.4358 426.409 91.54 428.168C91.2048 428.487 90.9208 428.85 90.6968 429.245C90.0464 430.485 89.7 431.846 89.6827 433.227C89.6827 433.227 89.2639 435.191 88.6191 437.435C87.9743 439.678 98.4399 438.739 98.4399 438.739Z" fill="#2D293D"/>
<path d="M68.8946 434.877L75.0396 433.077C76.7645 431.87 76.2906 430.411 75.4915 429.328C75.2156 428.978 74.8619 428.688 74.4547 428.477C74.0475 428.267 73.5965 428.142 73.1327 428.111C72.8949 428.081 72.6639 428.015 72.4493 427.915C72.292 427.846 72.1393 427.769 71.9919 427.683C70.3386 426.75 70.4653 424.589 70.4653 424.589C70.4653 424.589 63.885 422.526 61.9892 424.285C61.7349 424.522 61.5094 424.785 61.3168 425.068C60.5466 426.379 60.1374 427.848 60.1264 429.343C60.1264 429.343 59.7021 431.313 59.0628 433.552C58.4235 435.79 68.8946 434.877 68.8946 434.877Z" fill="#2D293D"/>
<path opacity="0.1" d="M91.5345 428.168C91.2013 428.487 90.9191 428.85 90.6968 429.245V429.245L100.617 430.684C100.203 430.011 99.9948 429.244 100.016 428.467C100.016 428.467 93.4523 426.409 91.5345 428.168Z" fill="black"/>
<path opacity="0.1" d="M61.3169 425.089L61.2452 426.837C62.7002 429.287 70.2229 429.034 72.4494 427.915C72.2921 427.846 72.1393 427.769 71.992 427.683C70.3386 426.75 70.4654 424.589 70.4654 424.589C70.4654 424.589 63.8851 422.526 61.9892 424.285C61.7336 424.528 61.5081 424.798 61.3169 425.089Z" fill="black"/>
<path d="M60.4407 417.518C60.8785 418.297 61.2472 419.107 61.5429 419.942L61.2728 426.203C62.8601 428.884 71.7109 428.328 72.9564 426.945C74.202 425.563 75.6238 421.876 74.2957 421.195C72.9675 420.515 71.992 417.297 71.992 417.297C71.992 417.297 73.4194 417.668 75.8167 415.234C78.2141 412.8 77.7622 407.122 77.3874 405.761C77.0126 404.399 77.6354 399.892 77.6354 399.892C77.6354 399.892 77.6795 396.715 78.4015 395.71C79.1234 394.704 80.8043 388.887 80.8043 388.887C80.8043 388.887 80.8815 386.902 82.1104 385.917C83.3394 384.932 84.2708 380.909 84.2708 380.909C85.0081 379.924 85.3568 378.73 85.2573 377.531C85.0865 375.541 86.8666 373.457 86.8666 373.457L90.1016 365L93.0776 358.672L94.4499 362.452C94.4499 362.452 94.516 371.193 94.1027 373.004C93.6893 374.814 93.0004 379.635 93.0004 379.635C93.0004 379.635 94.5656 382.869 93.6949 385.54C92.8241 388.211 92.8351 394.003 92.8351 394.003C92.8351 394.003 91.5786 405.951 92.2179 406.926C92.8572 407.901 92.6753 410.278 92.6753 410.278C92.6753 410.278 88.9167 417.132 89.9748 418.127C91.033 419.122 90.5921 421.737 90.5921 421.737C90.5921 421.737 88.2223 421.649 89.1978 422.639C90.1732 423.63 90.6968 428.616 90.6968 428.616L100.898 430.096C101.875 428.866 102.7 427.536 103.356 426.131C104.833 423.248 103.213 423.506 101.862 423.14C100.512 422.773 101.405 422.01 103.053 421.118C104.701 420.226 103.857 418.05 103.857 418.05C103.857 418.05 101.559 414.074 102.424 413.79C103.29 413.506 103.593 408.035 103.593 408.035C103.593 408.035 105.555 401.589 105.202 399.83C104.849 398.072 106.806 393.931 106.806 393.931L107.599 388.959C109.532 386.192 110.332 382.864 109.853 379.589L110.173 371.895C110.173 371.895 113.171 357.099 113.844 349.55C114.262 344.733 114.472 338.148 114.566 334.038C114.621 331.727 114.643 330.201 114.643 330.201L78.1755 325.312C78.0487 327.021 77.7554 328.716 77.2992 330.376C76.8528 332.248 76.1639 334.662 75.0948 337.673C72.1077 346.301 73.4414 352.86 73.4414 352.86L73.3257 363.896C73.3257 363.896 69.7986 371.157 70.3772 373.72C70.7229 375.246 70.8856 376.802 70.8622 378.362C70.8622 378.362 63.0144 394.183 63.5875 398.871C64.1607 403.559 60.7162 410.84 60.7162 410.84C60.7162 410.84 59.6526 416.059 60.4407 417.518Z" fill="#575988"/>
<path opacity="0.05" d="M83.0749 376.954L71.9865 375.149C71.9865 375.149 78.0542 381.42 83.0749 376.954Z" fill="black"/>
<path opacity="0.1" d="M74.0146 365.036C74.0146 365.036 73.4634 368.708 75.8387 370.193C75.8167 370.183 71.5456 369.394 74.0146 365.036Z" fill="black"/>
<path opacity="0.1" d="M75.1829 353.319C75.1829 353.319 84.2046 360.833 87.616 360.364C91.0274 359.895 75.1829 353.319 75.1829 353.319Z" fill="black"/>
<path opacity="0.1" d="M96.759 380.822C96.759 380.822 103.775 382.585 103.879 385.246C103.984 387.907 96.759 380.822 96.759 380.822Z" fill="black"/>
<path opacity="0.05" d="M93.8326 413.826C93.8326 413.826 103.753 415.93 100.876 417.018C97.999 418.106 93.287 418.89 93.287 418.89C93.287 418.89 90.0575 418.942 93.8326 413.826Z" fill="black"/>
<g opacity="0.05">
<path opacity="0.05" d="M102.821 418.983C103.078 418.845 103.298 418.654 103.466 418.426C103.634 418.198 103.745 417.937 103.791 417.663L103.885 417.833C103.885 417.833 104.734 420.004 103.08 420.927C102.893 421.025 102.717 421.128 102.529 421.226C102.237 421.164 101.918 421.113 101.614 421.03C100.27 420.644 101.168 419.88 102.821 418.983Z" fill="black"/>
<path opacity="0.05" d="M89.9583 417.89C89.6937 417.642 89.7323 417.034 89.9583 416.255C90.3379 416.974 90.5017 417.776 90.4322 418.576C90.3323 418.316 90.1702 418.082 89.9583 417.89V417.89Z" fill="black"/>
<path opacity="0.05" d="M93.1218 378.491C93.4506 379.443 93.6361 380.435 93.6729 381.435C93.5108 380.739 93.2782 380.059 92.9785 379.403C92.9785 379.403 93.0391 379.048 93.1218 378.491Z" fill="black"/>
<path opacity="0.05" d="M70.3991 373.504C70.3432 373.216 70.3229 372.924 70.3387 372.632C70.443 373.23 70.509 373.782 70.5474 374.267C70.5035 374.019 70.454 373.767 70.3991 373.504Z" fill="black"/>
<path opacity="0.05" d="M92.2013 406.694C92.0357 406.118 91.9761 405.52 92.025 404.925C92.309 405.641 92.4437 406.4 92.4218 407.163C92.3683 406.999 92.2943 406.842 92.2013 406.694V406.694Z" fill="black"/>
<path opacity="0.05" d="M89.4899 421.562C89.9516 423.173 90.2741 424.816 90.4544 426.476L100.655 427.956C101.637 426.727 102.463 425.397 103.119 423.991C103.251 423.738 103.35 423.511 103.439 423.305C104.039 423.588 104.26 424.197 103.378 425.909C102.722 427.312 101.897 428.641 100.92 429.869L90.6969 428.4C90.6969 428.4 90.1458 423.377 89.1593 422.392C88.7019 421.902 89.0435 421.68 89.4899 421.562Z" fill="black"/>
<path opacity="0.05" d="M103.615 407.818C103.615 407.818 103.306 413.29 102.447 413.573C102.055 412.65 101.802 411.784 102.188 411.655C103.047 411.366 103.361 405.9 103.361 405.9C103.361 405.9 105.323 399.459 104.971 397.695C104.618 395.931 106.569 391.801 106.569 391.801L107.368 386.824C109.3 384.057 110.101 380.729 109.622 377.454L109.936 369.76C109.936 369.76 112.923 354.939 113.574 347.415C113.987 342.598 114.196 336.013 114.296 331.903C114.296 331.16 114.329 330.5 114.34 329.943L114.632 329.984C114.632 329.984 114.632 331.531 114.555 333.816C114.461 337.941 114.251 344.516 113.833 349.333C113.182 356.852 110.201 371.678 110.201 371.678L109.881 379.367C110.36 382.642 109.561 385.969 107.633 388.737L106.828 393.714C106.828 393.714 104.872 397.84 105.224 399.614C105.577 401.388 103.615 407.818 103.615 407.818Z" fill="black"/>
<path opacity="0.05" d="M72.7029 424.816C73.5798 423.717 74.1858 422.451 74.4775 421.108C75.486 422.026 74.1468 425.414 72.9619 426.729C71.7771 428.044 62.8655 428.668 61.2783 425.991L61.3389 424.48C63.5434 426.688 71.5235 426.125 72.7029 424.816Z" fill="black"/>
<path opacity="0.05" d="M60.1872 415.373C60.6251 416.151 60.9937 416.962 61.2894 417.797L61.2398 418.906C61.0087 418.354 60.7475 417.813 60.4572 417.286C60.2144 416.654 60.1168 415.981 60.1706 415.311L60.1872 415.373Z" fill="black"/>
<path opacity="0.05" d="M72.5101 417.085C72.2119 416.464 71.9578 415.825 71.7495 415.172C71.7495 415.172 73.1769 415.538 75.5687 413.084C77.3103 411.294 77.5472 407.813 77.4039 405.523C77.7787 406.89 78.2251 412.542 75.8333 414.997C74.2571 416.606 73.1053 417.003 72.5101 417.085Z" fill="black"/>
<path opacity="0.05" d="M77.641 399.655C77.4268 401.213 77.3054 402.782 77.2773 404.353C77.2444 404.103 77.1966 403.855 77.134 403.61C76.7647 402.244 77.3765 397.742 77.3765 397.742C77.3765 397.742 77.4261 394.565 78.1425 393.559C78.859 392.554 80.5454 386.737 80.5454 386.737C80.5454 386.737 80.6281 384.756 81.857 383.766C83.086 382.776 84.0174 378.759 84.0174 378.759C84.7521 377.773 85.1006 376.58 85.0039 375.381C84.833 373.39 86.6131 371.307 86.6131 371.307L89.8482 362.85L92.8242 356.522L94.1965 360.307C94.1965 360.307 94.1965 360.771 94.1965 361.514L93.0943 358.42L90.1182 364.742L86.8832 373.205C86.8832 373.205 85.1031 375.267 85.2739 377.279C85.3734 378.478 85.0247 379.672 84.2874 380.657C84.2874 380.657 83.3561 384.674 82.1271 385.659C80.8981 386.644 80.8209 388.629 80.8209 388.629C80.8209 388.629 79.1345 394.446 78.4181 395.457C77.7016 396.468 77.641 399.655 77.641 399.655Z" fill="black"/>
</g>
<path d="M76.5221 253.496L77.0402 256.415L76.952 257.704L76.8859 258.653L80.4075 259.122L80.8319 258.452C81.6144 257.24 83.2347 254.77 83.7473 254.398C84.4196 253.909 85.9186 245.9 84.4968 246.323C83.6297 246.602 82.9035 247.171 82.4576 247.921C82.4576 247.921 75.4805 248.416 76.5221 253.496Z" fill="#FFCDD3"/>
<path opacity="0.1" d="M76.8859 258.653L80.4075 259.122L80.8318 258.452C80.3775 257.933 79.7462 257.575 79.0437 257.44C78.3413 257.305 77.6105 257.4 76.974 257.709L76.8859 258.653Z" fill="black"/>
<path d="M75.9269 260.19L80.5507 261.371L80.672 260.721L81.0082 258.983C80.766 258.657 80.4574 258.38 80.1001 258.167C79.7428 257.953 79.3439 257.808 78.9264 257.739C78.5089 257.671 78.081 257.68 77.6674 257.767C77.2539 257.854 76.8627 258.017 76.5166 258.246L76.252 259.127L75.9269 260.19Z" fill="#DCE6F2"/>
<path d="M151.727 256.539L156.599 259.22C156.599 259.22 156.803 258.854 157.089 258.354C157.602 257.441 158.362 256.069 158.577 255.574C158.903 254.816 161.019 253.914 161.019 253.914C166.425 249.443 160.38 245.219 160.38 245.219C157.348 238.912 153.347 247.065 153.347 247.065C153.347 247.065 152.658 251.413 153.006 251.706C153.353 252 153.303 253.207 153.303 253.207C152.79 254.045 152.351 254.921 151.992 255.827C151.821 256.255 151.727 256.539 151.727 256.539Z" fill="#FFCDD3"/>
<path opacity="0.1" d="M151.727 256.539L156.599 259.22C156.599 259.22 156.803 258.854 157.089 258.354C156.406 257.781 153.992 255.775 153.171 255.858C152.779 255.895 152.384 255.895 151.992 255.858C151.821 256.255 151.727 256.539 151.727 256.539Z" fill="black"/>
<path d="M151.159 257.915L156.671 260.695L156.825 259.571L156.935 258.797C156.935 258.797 153.805 256.085 152.846 256.147C152.357 256.193 151.863 256.174 151.38 256.09L151.281 257.028L151.159 257.915Z" fill="#DCE6F2"/>
<path d="M89.2914 273.216C89.2914 273.216 113.579 276.671 109.076 275.124C105.941 274.041 104.756 272.107 104.579 270.003C104.519 268.198 104.896 266.403 105.681 264.754C106.319 263.336 107.108 261.981 108.035 260.711C108.035 260.711 89.7819 250.443 93.1547 259.303C93.6759 260.643 93.9751 262.05 94.042 263.475C94.0949 264.889 93.8746 266.301 93.3917 267.642C92.5997 269.818 91.1808 271.747 89.2914 273.216V273.216Z" fill="#FFCDD3"/>
<path opacity="0.1" d="M93.1768 259.303C93.698 260.643 93.9972 262.05 94.0641 263.475C95.7615 264.914 97.6904 264.893 100.165 264.981C102.066 265.053 104.149 265.558 105.676 264.754C106.314 263.336 107.102 261.981 108.029 260.711C108.029 260.711 89.8039 250.443 93.1768 259.303Z" fill="black"/>
<path d="M100.859 265.605C106.432 265.605 110.95 261.377 110.95 256.162C110.95 250.947 106.432 246.72 100.859 246.72C95.2863 246.72 90.7684 250.947 90.7684 256.162C90.7684 261.377 95.2863 265.605 100.859 265.605Z" fill="#FFCDD3"/>
<path opacity="0.1" d="M89.2914 273.216C89.2914 273.216 113.579 276.671 109.076 275.124C105.941 274.041 104.756 272.107 104.579 270.003C103.416 268.73 101.014 267.755 99.4649 267.224C98.0549 266.727 96.5158 266.648 95.056 266.997C94.4738 267.134 93.9167 267.351 93.4027 267.642C92.6077 269.819 91.1848 271.748 89.2914 273.216Z" fill="black"/>
<path opacity="0.1" d="M75.9269 260.19L80.5507 261.371L80.672 260.721C80.2009 260.064 79.5251 259.558 78.7362 259.273C77.9474 258.988 77.0839 258.937 76.2631 259.127L75.9269 260.19Z" fill="black"/>
<path opacity="0.1" d="M151.159 257.915L156.671 260.695L156.825 259.571C155.039 258.604 153.178 257.763 151.259 257.054L151.159 257.915Z" fill="black"/>
<path opacity="0.1" d="M77.2771 330.376C86.646 332.114 100.038 334.414 102.193 333.883C103.984 333.444 109.633 333.702 114.543 334.038C114.599 331.727 114.621 330.201 114.621 330.201L78.1534 325.312C78.0265 327.021 77.7332 328.716 77.2771 330.376V330.376Z" fill="black"/>
<path d="M67.9468 327.963C67.9468 327.963 98.8422 334.079 102.221 333.248C105.599 332.418 122.694 334.063 122.694 334.063C130.206 339.179 127.28 331.928 127.28 331.928C127.28 331.928 128.112 328.226 127.28 325.178C126.747 322.945 126.413 320.675 126.282 318.391C126.282 318.391 126.651 313.637 125.764 312.497C124.877 311.357 124.111 303.379 124.111 303.379C124.111 303.379 123.488 297.959 123.62 296.773C123.753 295.587 123.554 292.24 123.554 292.24L122.678 286.65C129.065 286.088 148.845 275.681 148.845 275.681C149.947 271.989 157.492 263.521 157.492 263.521C157.627 262.791 157.857 262.08 158.175 261.402C158.726 260.154 151.215 257.343 151.215 257.343C151.215 257.343 145.257 263.64 144.022 265.342C142.788 267.043 138.561 270.148 138.561 270.148C137.932 270.066 137.29 270.12 136.687 270.308H136.588C135.211 270.764 133.911 271.405 132.73 272.211C130.821 272.099 128.94 272.685 127.484 273.845C127.484 273.845 124.028 273.247 123.416 273.778C122.805 274.309 119.856 273.649 119.856 273.649C119.856 273.649 117.101 267.678 115.111 269.312C113.122 270.947 104.822 270.571 104.822 270.571C103.78 269.158 101.135 268.08 99.4815 267.513C98.0721 267.013 96.532 266.934 95.0726 267.286C94.4393 267.431 93.8373 267.677 93.2925 268.013L88.09 272.427C88.09 272.427 86.7177 270.633 86.9051 270.241C87.0925 269.849 85.2517 269.467 85.2517 269.467C85.2517 269.467 82.8213 268.663 81.901 268.394C80.9806 268.126 80.0823 269.034 80.0051 269.116C80.4259 268.004 80.613 266.825 80.5563 265.646C80.3634 264.13 81.686 262.825 81.686 262.825C79.0021 255.899 72.0746 261.371 72.0746 261.371C72.0746 261.371 71.1543 265.068 71.777 266.528C72.3998 267.987 70.9173 270.942 71.0495 271.741C71.1818 272.541 70.6252 273.871 70.5646 275.377C70.5039 276.883 71.2314 279.771 71.6668 281.05C72.1022 282.329 76.0757 285.34 76.0757 285.34C76.0757 285.34 76.1473 289.868 77.8172 292.56C79.4871 295.252 78.0211 304.163 78.0211 304.163C78.0211 304.163 76.0371 311.079 73.8272 313.224C71.6172 315.369 67.9468 327.963 67.9468 327.963Z" fill="#656691"/>
<path opacity="0.1" d="M115.431 277.414C115.431 277.414 116.472 274.836 117.327 274.624C118.183 274.364 119.019 274.049 119.829 273.68L119.322 272.685C119.322 272.685 116.103 273.392 115.563 274.232C115.023 275.073 115.431 277.414 115.431 277.414Z" fill="black"/>
<path opacity="0.1" d="M132.703 272.242C132.84 273.041 140.352 274.026 140.352 274.026L136.687 270.308H136.593C135.203 270.771 133.892 271.423 132.703 272.242V272.242Z" fill="black"/>
<path d="M154.973 262.773C155.348 262.773 155.651 262.489 155.651 262.139C155.651 261.789 155.348 261.505 154.973 261.505C154.599 261.505 154.295 261.789 154.295 262.139C154.295 262.489 154.599 262.773 154.973 262.773Z" fill="#575988"/>
<path d="M154.053 264.011C154.427 264.011 154.731 263.727 154.731 263.377C154.731 263.026 154.427 262.742 154.053 262.742C153.678 262.742 153.375 263.026 153.375 263.377C153.375 263.727 153.678 264.011 154.053 264.011Z" fill="#575988"/>
<path d="M153.154 265.151C153.529 265.151 153.832 264.867 153.832 264.516C153.832 264.166 153.529 263.882 153.154 263.882C152.78 263.882 152.477 264.166 152.477 264.516C152.477 264.867 152.78 265.151 153.154 265.151Z" fill="#575988"/>
<path d="M152.218 266.388C152.592 266.388 152.895 266.104 152.895 265.754C152.895 265.404 152.592 265.12 152.218 265.12C151.843 265.12 151.54 265.404 151.54 265.754C151.54 266.104 151.843 266.388 152.218 266.388Z" fill="#575988"/>
<path d="M72.3337 263.325C72.6381 263.325 72.8848 263.094 72.8848 262.809C72.8848 262.525 72.6381 262.294 72.3337 262.294C72.0293 262.294 71.7826 262.525 71.7826 262.809C71.7826 263.094 72.0293 263.325 72.3337 263.325Z" fill="#575988"/>
<path d="M72.2014 264.491C72.5058 264.491 72.7525 264.26 72.7525 263.975C72.7525 263.69 72.5058 263.459 72.2014 263.459C71.897 263.459 71.6503 263.69 71.6503 263.975C71.6503 264.26 71.897 264.491 72.2014 264.491Z" fill="#575988"/>
<path d="M72.0747 265.656C72.379 265.656 72.6258 265.425 72.6258 265.14C72.6258 264.856 72.379 264.625 72.0747 264.625C71.7703 264.625 71.5236 264.856 71.5236 265.14C71.5236 265.425 71.7703 265.656 72.0747 265.656Z" fill="#575988"/>
<path opacity="0.1" d="M114.505 298.903C114.588 298.815 94.5546 320.702 80.2587 307.123C80.2587 307.123 103.571 310.939 114.505 298.903Z" fill="black"/>
<path opacity="0.1" d="M124.998 311.037C124.998 311.037 113.551 310.919 112.229 313.951L112.097 317.154C112.415 317.334 112.778 317.435 113.15 317.449C113.522 317.462 113.891 317.387 114.224 317.231C115.403 316.69 122.446 313.652 124.822 315.323L124.998 311.037Z" fill="black"/>
<path d="M124.783 311.027C124.783 311.027 113.844 310.914 112.576 313.807L112.449 316.86C112.754 317.032 113.1 317.13 113.456 317.142C113.812 317.155 114.165 317.083 114.483 316.932C115.585 316.416 122.347 313.523 124.618 315.111L124.783 311.027Z" fill="#656691"/>
<path opacity="0.1" d="M119.713 287.584C118.439 290.07 116.853 292.405 114.99 294.54C112.953 296.902 110.518 298.936 107.781 300.564C107.781 300.564 119.459 289.028 119.713 287.584Z" fill="black"/>
<path opacity="0.1" d="M123.962 275.289C123.962 275.289 121.758 282.927 116.715 285.366L123.962 275.289Z" fill="black"/>
<path opacity="0.1" d="M126.855 276.171C126.91 276.032 128.299 282.329 120.126 285.49C120.126 285.49 123.582 284.525 126.855 276.171Z" fill="black"/>
<path opacity="0.1" d="M77.1504 269.209C77.2772 269.209 73.0887 271.504 71.9314 272.592C71.959 272.592 74.7421 268.962 77.1504 269.209Z" fill="black"/>
<path d="M103.235 264.816C103.131 265.316 102.83 265.762 102.391 266.063C102.09 266.187 101.761 266.242 101.432 266.223C98.3518 266.296 95.1443 266.306 92.3501 265.094C91.8273 264.9 91.3636 264.588 90.9999 264.186C90.5149 263.588 90.4488 262.799 90.278 262.067C89.9363 260.644 89.1372 259.359 88.5805 257.993C87.6432 255.692 87.401 253.194 87.8806 250.773C87.991 250.033 88.2835 249.327 88.7348 248.71C89.5946 247.653 91.0991 247.266 92.2124 246.436C93.3256 245.606 94.0751 244.306 95.3647 243.698C96.5221 243.151 97.9054 243.27 99.1784 243.522C101.677 244.013 104.053 244.945 106.178 246.271C106.889 246.72 107.671 247.23 108.52 247.112C109.247 246.923 109.882 246.504 110.316 245.926C110.862 247.237 111.063 248.652 110.901 250.051C110.862 250.256 110.862 250.465 110.901 250.67C110.995 250.922 111.145 251.152 111.342 251.346C112.063 252.196 112.488 253.517 111.705 254.321C111.364 254.672 110.851 254.837 110.52 255.213C109.925 255.853 110.074 256.812 110.052 257.663C110.072 257.959 109.982 258.252 109.798 258.493C109.627 258.629 109.422 258.721 109.202 258.762C108.982 258.802 108.755 258.79 108.542 258.725C108.117 258.59 107.667 258.534 107.219 258.56C106.741 258.689 106.323 258.965 106.034 259.344C104.541 260.963 103.924 262.804 103.235 264.816Z" fill="#2D293D"/>
<g opacity="0.1">
<path opacity="0.1" d="M90.6967 263.444C91.0585 263.849 91.5226 264.162 92.0469 264.357C94.8411 265.568 98.0486 265.553 101.129 265.486C101.459 265.505 101.788 265.449 102.088 265.321C102.528 265.022 102.829 264.578 102.931 264.078C103.609 262.062 104.238 260.226 105.731 258.586C106.019 258.205 106.437 257.927 106.916 257.797C107.364 257.773 107.813 257.829 108.239 257.962C108.452 258.028 108.679 258.041 108.9 258.001C109.12 257.96 109.325 257.867 109.495 257.73C109.68 257.491 109.769 257.199 109.749 256.905C109.749 256.054 109.622 255.095 110.217 254.45C110.548 254.094 111.06 253.934 111.402 253.563C111.624 253.3 111.766 252.986 111.814 252.654C111.861 252.322 111.812 251.984 111.672 251.676C112.179 252.496 112.372 253.532 111.711 254.208C111.369 254.558 110.862 254.723 110.526 255.1C109.931 255.739 110.085 256.698 110.063 257.549C110.084 257.846 109.992 258.14 109.804 258.38C109.633 258.516 109.428 258.608 109.208 258.649C108.988 258.69 108.76 258.677 108.547 258.612C108.124 258.476 107.677 258.42 107.23 258.447C106.749 258.576 106.329 258.854 106.04 259.236C104.552 260.87 103.923 262.711 103.24 264.723C103.23 264.929 103.175 265.131 103.078 265.316C102.98 265.502 102.843 265.666 102.674 265.799C102.505 265.932 102.308 266.03 102.096 266.088C101.885 266.146 101.662 266.162 101.443 266.136C98.3627 266.203 95.1552 266.213 92.3556 265.001C91.8332 264.806 91.3696 264.495 91.0053 264.094C90.8234 263.858 90.6873 263.595 90.603 263.315C90.6304 263.36 90.6618 263.403 90.6967 263.444V263.444Z" fill="black"/>
<path opacity="0.1" d="M110.878 250.402C110.742 250.253 110.644 250.076 110.592 249.886C110.553 249.681 110.553 249.472 110.592 249.267C110.725 248.113 110.613 246.946 110.261 245.833L110.316 245.776C110.867 247.086 111.069 248.502 110.906 249.902C110.881 250.067 110.872 250.235 110.878 250.402Z" fill="black"/>
</g>
<path opacity="0.1" d="M104.794 270.602C104.794 270.602 92.1186 271.71 91.0715 269.895Z" fill="black"/>
<path opacity="0.1" d="M80.5067 264.841C80.5067 264.841 73.502 264.599 71.8652 266.997Z" fill="black"/>
</g>
<defs>
<linearGradient id="paint0_linear" x1="303.917" y1="355.026" x2="303.917" y2="77.4113" gradientUnits="userSpaceOnUse">
<stop stop-color="#808080" stop-opacity="0.25"/>
<stop offset="0.54" stop-color="#808080" stop-opacity="0.12"/>
<stop offset="1" stop-color="#808080" stop-opacity="0.1"/>
</linearGradient>
<linearGradient id="paint1_linear" x1="112895" y1="171457" x2="112895" y2="93965.9" gradientUnits="userSpaceOnUse">
<stop stop-color="#808080" stop-opacity="0.25"/>
<stop offset="0.54" stop-color="#808080" stop-opacity="0.12"/>
<stop offset="1" stop-color="#808080" stop-opacity="0.1"/>
</linearGradient>
<linearGradient id="paint2_linear" x1="-94415.2" y1="169759" x2="-91592.9" y2="94356.2" gradientUnits="userSpaceOnUse">
<stop stop-color="#808080" stop-opacity="0.25"/>
<stop offset="0.54" stop-color="#808080" stop-opacity="0.12"/>
<stop offset="1" stop-color="#808080" stop-opacity="0.1"/>
</linearGradient>
<clipPath id="clip0">
<rect width="630" height="445" fill="white"/>
</clipPath>
</defs>
</svg>
