<svg width="516" height="458" viewBox="0 0 516 458" fill="none" xmlns="http://www.w3.org/2000/svg">
<g clip-path="url(#clip0)">
<path d="M507.926 458H0V456.573H508.19L507.926 458Z" fill="#3F3D56"/>
<path d="M377.213 193.673H196.187C195.298 193.672 194.446 193.327 193.817 192.714C193.189 192.1 192.835 191.269 192.834 190.401V109.932C192.835 109.064 193.189 108.233 193.817 107.619C194.446 107.006 195.298 106.661 196.187 106.66H377.213C378.102 106.661 378.954 107.006 379.582 107.619C380.211 108.233 380.565 109.064 380.566 109.932V190.401C380.565 191.269 380.211 192.1 379.582 192.714C378.954 193.327 378.102 193.672 377.213 193.673ZM196.187 107.968C195.653 107.969 195.142 108.176 194.765 108.544C194.388 108.912 194.176 109.411 194.175 109.932V190.401C194.176 190.922 194.388 191.421 194.765 191.789C195.142 192.157 195.653 192.364 196.187 192.364H377.213C377.746 192.364 378.258 192.157 378.635 191.789C379.012 191.421 379.224 190.922 379.225 190.401V109.932C379.224 109.411 379.012 108.912 378.635 108.544C378.258 108.176 377.746 107.969 377.213 107.968H196.187Z" fill="#3F3D56"/>
<path d="M219.653 145.586C227.429 145.586 233.733 139.433 233.733 131.844C233.733 124.255 227.429 118.103 219.653 118.103C211.877 118.103 205.573 124.255 205.573 131.844C205.573 139.433 211.877 145.586 219.653 145.586Z" fill="#333333"/>
<path d="M252.171 122.683C251.548 122.683 250.951 122.925 250.511 123.354C250.071 123.784 249.824 124.366 249.824 124.974C249.824 125.581 250.071 126.163 250.511 126.593C250.951 127.022 251.548 127.264 252.171 127.264H362.798C363.42 127.264 364.017 127.022 364.457 126.593C364.897 126.163 365.144 125.581 365.144 124.974C365.144 124.366 364.897 123.784 364.457 123.354C364.017 122.925 363.42 122.683 362.798 122.683H252.171Z" fill="#E6E6E6"/>
<path d="M252.171 136.425C251.548 136.425 250.951 136.666 250.511 137.096C250.071 137.525 249.824 138.108 249.824 138.715C249.824 139.322 250.071 139.905 250.511 140.334C250.951 140.764 251.548 141.005 252.171 141.005H299.774C300.396 141.005 300.993 140.764 301.433 140.334C301.873 139.905 302.12 139.322 302.12 138.715C302.12 138.108 301.873 137.525 301.433 137.096C300.993 136.666 300.396 136.425 299.774 136.425H252.171Z" fill="#E6E6E6"/>
<path d="M208.853 158.393C207.068 158.393 205.616 159.421 205.616 160.684C205.616 161.946 207.068 162.974 208.853 162.974H361.485C363.27 162.974 364.722 161.946 364.722 160.684C364.722 159.421 363.27 158.393 361.485 158.393H208.853Z" fill="#E6E6E6"/>
<path d="M208.853 172.135C207.068 172.135 205.616 173.162 205.616 174.425C205.616 175.688 207.068 176.715 208.853 176.715H361.485C363.27 176.715 364.722 175.688 364.722 174.425C364.722 173.162 363.27 172.135 361.485 172.135H208.853Z" fill="#E6E6E6"/>
<path d="M512.648 87.0132H331.621C330.732 87.0121 329.88 86.6671 329.252 86.0537C328.623 85.4404 328.27 84.6088 328.269 83.7414V3.27177C328.27 2.40436 328.623 1.57276 329.252 0.959406C329.88 0.34605 330.732 0.00101829 331.621 0H512.648C513.536 0.00102001 514.388 0.34605 515.017 0.959406C515.645 1.57276 515.999 2.40436 516 3.27177V83.7414C515.999 84.6088 515.645 85.4404 515.017 86.0537C514.388 86.6671 513.536 87.0121 512.648 87.0132V87.0132ZM331.621 1.30871C331.088 1.30928 330.576 1.51628 330.199 1.8843C329.822 2.25233 329.61 2.75131 329.61 3.27177V83.7414C329.61 84.2618 329.822 84.7608 330.199 85.1288C330.576 85.4969 331.088 85.7039 331.621 85.7044H512.648C513.181 85.7039 513.692 85.4969 514.069 85.1288C514.446 84.7608 514.658 84.2618 514.659 83.7414V3.27177C514.658 2.75131 514.446 2.25233 514.069 1.8843C513.692 1.51628 513.181 1.30928 512.648 1.30871H331.621Z" fill="#3F3D56"/>
<path d="M355.087 38.9259C362.864 38.9259 369.167 32.7737 369.167 25.1845C369.167 17.5953 362.864 11.4431 355.087 11.4431C347.311 11.4431 341.008 17.5953 341.008 25.1845C341.008 32.7737 347.311 38.9259 355.087 38.9259Z" fill="#333333"/>
<path d="M387.605 16.0235C386.983 16.0235 386.386 16.2648 385.946 16.6943C385.506 17.1238 385.259 17.7064 385.259 18.3138C385.259 18.9212 385.506 19.5037 385.946 19.9332C386.386 20.3627 386.983 20.604 387.605 20.604H498.232C498.855 20.604 499.452 20.3627 499.892 19.9332C500.332 19.5037 500.579 18.9212 500.579 18.3138C500.579 17.7064 500.332 17.1238 499.892 16.6943C499.452 16.2648 498.855 16.0235 498.232 16.0235H387.605Z" fill="#E6E6E6"/>
<path d="M387.605 29.765C386.983 29.765 386.386 30.0062 385.946 30.4358C385.506 30.8653 385.259 31.4478 385.259 32.0552C385.259 32.6626 385.506 33.2451 385.946 33.6746C386.386 34.1041 386.983 34.3454 387.605 34.3454H435.208C435.831 34.3454 436.428 34.1041 436.868 33.6746C437.308 33.2451 437.555 32.6626 437.555 32.0552C437.555 31.4478 437.308 30.8653 436.868 30.4358C436.428 30.0062 435.831 29.765 435.208 29.765H387.605Z" fill="#E6E6E6"/>
<path d="M344.288 51.7336C342.503 51.7336 341.05 52.7611 341.05 54.0238C341.05 55.2865 342.503 56.314 344.288 56.314H496.919C498.704 56.314 500.157 55.2865 500.157 54.0238C500.157 52.7611 498.704 51.7336 496.919 51.7336H344.288Z" fill="#E6E6E6"/>
<path d="M344.288 65.475C342.503 65.475 341.05 66.5025 341.05 67.7652C341.05 69.0279 342.503 70.0555 344.288 70.0555H496.919C498.704 70.0555 500.157 69.0279 500.157 67.7652C500.157 66.5025 498.704 65.475 496.919 65.475H344.288Z" fill="#E6E6E6"/>
<path d="M512.648 300.333H331.621C330.732 300.332 329.88 299.987 329.252 299.373C328.623 298.76 328.27 297.928 328.269 297.061V216.591C328.27 215.724 328.623 214.892 329.252 214.279C329.88 213.666 330.732 213.321 331.621 213.32H512.648C513.536 213.321 514.388 213.666 515.017 214.279C515.645 214.892 515.999 215.724 516 216.591V297.061C515.999 297.928 515.645 298.76 515.017 299.373C514.388 299.987 513.536 300.332 512.648 300.333V300.333ZM331.621 214.628C331.088 214.629 330.576 214.836 330.199 215.204C329.822 215.572 329.61 216.071 329.61 216.591V297.061C329.61 297.581 329.822 298.08 330.199 298.448C330.576 298.816 331.088 299.023 331.621 299.024H512.648C513.181 299.023 513.692 298.816 514.069 298.448C514.446 298.08 514.658 297.581 514.659 297.061V216.591C514.658 216.071 514.446 215.572 514.069 215.204C513.692 214.836 513.181 214.629 512.648 214.628H331.621Z" fill="#3F3D56"/>
<path d="M355.087 252.245C362.864 252.245 369.167 246.093 369.167 238.504C369.167 230.915 362.864 224.763 355.087 224.763C347.311 224.763 341.008 230.915 341.008 238.504C341.008 246.093 347.311 252.245 355.087 252.245Z" fill="#333333"/>
<path d="M387.605 229.343C386.983 229.343 386.386 229.584 385.946 230.014C385.506 230.443 385.259 231.026 385.259 231.633C385.259 232.241 385.506 232.823 385.946 233.253C386.386 233.682 386.983 233.923 387.605 233.923H498.232C498.855 233.923 499.452 233.682 499.892 233.253C500.332 232.823 500.579 232.241 500.579 231.633C500.579 231.026 500.332 230.443 499.892 230.014C499.452 229.584 498.855 229.343 498.232 229.343H387.605Z" fill="#E6E6E6"/>
<path d="M387.605 243.084C386.983 243.084 386.386 243.326 385.946 243.755C385.506 244.185 385.259 244.767 385.259 245.375C385.259 245.982 385.506 246.565 385.946 246.994C386.386 247.424 386.983 247.665 387.605 247.665H435.208C435.831 247.665 436.428 247.424 436.868 246.994C437.308 246.565 437.555 245.982 437.555 245.375C437.555 244.767 437.308 244.185 436.868 243.755C436.428 243.326 435.831 243.084 435.208 243.084H387.605Z" fill="#E6E6E6"/>
<path d="M344.288 265.053C342.503 265.053 341.05 266.081 341.05 267.343C341.05 268.606 342.503 269.634 344.288 269.634H496.919C498.704 269.634 500.157 268.606 500.157 267.343C500.157 266.081 498.704 265.053 496.919 265.053H344.288Z" fill="#E6E6E6"/>
<path d="M344.288 278.794C342.503 278.794 341.05 279.822 341.05 281.085C341.05 282.347 342.503 283.375 344.288 283.375H496.919C498.704 283.375 500.157 282.347 500.157 281.085C500.157 279.822 498.704 278.794 496.919 278.794H344.288Z" fill="#E6E6E6"/>
<path d="M77.9584 263.287L71.768 272.387C71.2508 273.288 70.9224 274.281 70.8018 275.307C70.6812 276.333 70.7708 277.372 71.0654 278.364C71.36 279.356 71.8538 280.281 72.518 281.085C73.1822 281.888 74.0035 282.556 74.9342 283.047C76.0937 283.659 77.3903 283.981 78.7085 283.985C80.0267 283.989 81.3253 283.674 82.4884 283.069C83.6514 282.463 84.6428 281.586 85.3739 280.516C86.105 279.445 86.5532 278.215 86.6782 276.934L85.6624 268.498L90.43 213.806L98.5624 177.832L81.6777 173.154L73.8184 213.608L77.9584 263.287Z" fill="#9F616A"/>
<path d="M165.27 435.881L148.907 436.576L112.174 313.74L72.0236 437.525L56.4217 437.27L81.6365 292.14C74.2178 272.3 79.0326 254.178 90.5295 236.993L92.2583 226.272L136.813 225.499L141 266.169L165.27 435.881Z" fill="#2F2E41"/>
<path d="M153.897 457.726C156.202 458.752 158.418 450.189 160.077 452.299C166.496 460.463 178.993 457.645 178.561 456.346C178.999 456.208 179.404 455.986 179.751 455.691C180.099 455.396 180.381 455.036 180.581 454.632C180.782 454.228 180.896 453.788 180.917 453.339C180.938 452.891 180.866 452.443 180.704 452.022V452.022C180.511 451.519 180.195 451.069 179.784 450.712C179.373 450.354 178.88 450.099 178.345 449.968L172.562 448.557L163.481 432.971L153.584 431.749L153.334 432.148C151.421 435.157 150.188 438.53 149.716 442.042C149.244 445.553 149.546 449.123 150.6 452.512C151.423 455.085 152.543 457.122 153.897 457.726Z" fill="#2F2E41"/>
<path d="M59.6094 457.726C61.9143 458.752 64.1297 450.189 65.7891 452.299C72.2075 460.463 84.7053 457.645 84.2733 456.346C84.7113 456.208 85.1162 455.986 85.4634 455.691C85.8106 455.396 86.0929 455.036 86.2932 454.632C86.4936 454.228 86.6077 453.788 86.6288 453.339C86.6499 452.891 86.5775 452.443 86.416 452.022V452.022C86.2226 451.519 85.907 451.069 85.4962 450.712C85.0853 450.354 84.5916 450.099 84.0574 449.968L78.2739 448.557L69.1929 432.971L59.2962 431.749L59.0463 432.148C57.133 435.157 55.8995 438.53 55.428 442.042C54.9564 445.553 55.2577 449.123 56.3118 452.512C57.1348 455.085 58.2551 457.122 59.6094 457.726Z" fill="#2F2E41"/>
<path d="M69.9338 204.69L82.8067 161.804C83.4208 158.741 85.256 156.043 87.9088 154.301C90.5616 152.56 93.8145 151.918 96.952 152.518V152.518C98.5055 152.814 99.9839 153.407 101.303 154.261C102.622 155.116 103.755 156.215 104.639 157.497C105.522 158.779 106.138 160.218 106.452 161.733C106.766 163.247 106.771 164.807 106.467 166.323L95.942 205.488C88.3168 197.652 79.5548 198.057 69.9338 204.69Z" fill="#333333"/>
<path d="M183.723 164.757L159.344 170.006L160.392 151.08H180.308L193.142 113.119L192.973 103.295C192.708 102.389 192.651 101.436 192.808 100.506C192.964 99.5756 193.33 98.6906 193.878 97.9144C194.426 97.1382 195.143 96.49 195.979 96.0163C196.814 95.5426 197.746 95.2552 198.709 95.1747V95.1747C199.814 95.0822 200.926 95.2656 201.939 95.7076C202.952 96.1496 203.834 96.8357 204.5 97.7015C205.167 98.5673 205.597 99.5843 205.751 100.657C205.904 101.73 205.776 102.823 205.377 103.834L200.991 115.476L194.983 151.08C194.983 154.27 193.867 157.365 191.819 159.852C189.772 162.34 186.915 164.07 183.723 164.757V164.757Z" fill="#9F616A"/>
<path d="M117.153 138.037C128.731 138.037 138.117 128.876 138.117 117.576C138.117 106.276 128.731 97.1159 117.153 97.1159C105.575 97.1159 96.1891 106.276 96.1891 117.576C96.1891 128.876 105.575 138.037 117.153 138.037Z" fill="#9F616A"/>
<path d="M121.084 160.799L90.1619 161.31C95.1001 146.197 98.4921 132.067 98.0234 120.39H121.608C120.041 133.808 119.866 147.346 121.084 160.799V160.799Z" fill="#9F616A"/>
<path d="M141.262 229.085L90.5702 236.609C82.5622 213.927 82.3264 187.752 86.5993 168.381C86.0736 163.763 86.5893 159.089 88.1101 154.687C89.6309 150.285 92.12 146.26 95.4029 142.896V142.896L120.036 145.453C122.875 146.069 125.484 147.439 127.574 149.412C129.665 151.385 131.155 153.884 131.881 156.633C141.385 169.492 148.348 181.66 140.648 189.837L141.262 229.085Z" fill="#333333"/>
<path d="M171.922 174.098L126.325 170.006C123.128 170.006 120.062 168.766 117.801 166.56C115.541 164.354 114.271 161.361 114.271 158.241C114.271 155.121 115.541 152.129 117.801 149.922C120.062 147.716 123.128 146.476 126.325 146.476L167.729 149.034C161.314 157.843 163.404 166.157 171.922 174.098Z" fill="#333333"/>
<path d="M88.5894 155.901L73.1021 155.513C75.5742 134.382 76.8616 110.57 89.4929 98.3291C91.1001 96.7716 92.5428 95.1586 93.9828 93.5429C96.8502 90.3255 102.927 88.4785 109.139 89.1796L112.184 89.5232C122.177 90.651 143.14 97.644 142.533 103.753C142.223 106.863 142.015 112.46 134.429 112.53C128.303 120.552 117.349 125.006 121.923 132.627C131.074 140.594 119.167 146.91 109.564 151.669C103.677 154.587 96.2091 156.092 88.5894 155.901Z" fill="#2F2E41"/>
</g>
<defs>
<clipPath id="clip0">
<rect width="516" height="458" fill="white"/>
</clipPath>
</defs>
</svg>
